<?xml version="1.0" standalone="no"?>
<!DOCTYPE svg PUBLIC "-//W3C//DTD SVG 20010904//EN"
 "http://www.w3.org/TR/2001/REC-SVG-20010904/DTD/svg10.dtd">
<svg version="1.0" xmlns="http://www.w3.org/2000/svg"
 width="1080.000000pt" height="1350.000000pt" viewBox="0 0 1080.000000 1350.000000"
 preserveAspectRatio="xMidYMid meet">

<g transform="translate(0.000000,1350.000000) scale(0.100000,-0.100000)"
fill="#000000" stroke="none">
<path d="M2486 13478 c-21 -81 5 -232 60 -339 13 -26 32 -69 42 -96 l19 -49
-28 4 c-21 3 -40 -5 -76 -34 -26 -22 -50 -42 -51 -47 -2 -4 -7 -5 -11 -3 -4 3
-16 -9 -26 -25 -11 -16 -28 -32 -37 -34 -9 -3 -33 -17 -53 -31 -20 -13 -41
-22 -46 -19 -5 3 -6 -2 -2 -11 4 -12 3 -15 -6 -10 -8 5 -14 1 -18 -13 -3 -12
-13 -21 -23 -21 -10 0 -23 -7 -30 -15 -7 -8 -17 -15 -22 -15 -5 0 -20 -13 -34
-29 -13 -16 -35 -32 -49 -35 -14 -4 -23 -11 -20 -16 3 -6 -10 -19 -29 -31 -22
-13 -33 -26 -29 -35 3 -8 -1 -14 -11 -14 -9 0 -16 -7 -16 -16 0 -9 -9 -18 -20
-21 -11 -3 -20 -9 -20 -14 0 -5 -7 -9 -15 -9 -8 0 -15 -7 -15 -15 0 -8 -6 -15
-12 -15 -10 0 -10 -3 0 -9 11 -6 8 -10 -10 -14 -14 -4 -32 -24 -47 -52 -13
-25 -30 -45 -37 -45 -13 0 -19 -13 -15 -34 1 -4 -17 -32 -39 -62 -22 -30 -35
-54 -29 -54 8 0 6 -7 -4 -18 -10 -10 -17 -24 -17 -30 0 -7 -5 -12 -11 -12 -6
0 -9 -7 -5 -15 3 -8 0 -15 -7 -15 -8 0 -8 -3 2 -9 17 -11 12 -20 -49 -92 -16
-20 -30 -42 -30 -48 0 -6 -5 -11 -10 -11 -6 0 -8 -13 -5 -30 4 -20 1 -30 -7
-30 -8 -1 -6 -6 5 -14 12 -9 14 -16 8 -21 -6 -3 -11 0 -11 7 0 10 -3 9 -9 -2
-6 -8 -7 -18 -4 -24 3 -5 1 -6 -4 -3 -14 9 -37 -19 -30 -37 3 -8 -1 -17 -9
-20 -8 -3 -14 -12 -14 -20 0 -8 -4 -16 -10 -18 -5 -2 -12 -23 -15 -48 -3 -24
-12 -48 -20 -53 -8 -4 -15 -17 -15 -27 0 -11 -4 -20 -9 -20 -6 0 -8 -9 -6 -20
2 -13 -3 -21 -17 -26 -16 -5 -18 -8 -7 -15 10 -6 8 -12 -10 -29 -14 -11 -21
-23 -18 -27 4 -3 1 -16 -7 -29 -8 -12 -15 -30 -15 -40 0 -29 -7 -70 -15 -83
-4 -6 -4 -17 2 -24 10 -13 -10 -61 -21 -50 -4 3 -7 0 -7 -8 0 -9 -13 -25 -30
-37 -16 -13 -30 -27 -30 -32 0 -4 89 -9 198 -10 108 -1 229 -3 267 -5 39 -2
237 -6 440 -10 682 -12 839 -30 1027 -120 38 -18 67 -30 64 -28 -7 7 11 24 90
84 82 61 84 63 174 176 80 99 93 130 64 150 -93 65 -144 107 -159 129 -9 15
-13 24 -8 21 13 -8 61 -19 100 -22 35 -3 72 -30 51 -37 -7 -3 -5 -7 6 -11 9
-4 15 -3 12 2 -3 5 5 8 18 7 13 0 22 -4 20 -7 -2 -4 3 -10 12 -13 8 -3 12 -2
9 4 -3 6 -1 10 6 10 7 0 4 6 -7 14 -10 8 -28 13 -39 10 -14 -3 -32 7 -60 36
-48 49 -39 53 12 5 36 -34 61 -47 48 -24 -4 6 12 1 35 -11 51 -26 64 -21 15 6
-19 10 -35 22 -35 27 0 5 -8 6 -17 3 -17 -6 -93 55 -93 74 0 22 33 17 59 -10
31 -33 47 -39 37 -15 -3 8 -1 15 4 15 6 0 10 -5 10 -11 0 -5 4 -7 10 -4 6 4 5
11 -3 20 -7 8 -16 10 -23 4 -6 -5 -14 -6 -17 -2 -4 3 1 12 11 20 15 13 15 13
-7 7 -31 -8 -58 29 -28 39 6 2 2 2 -10 0 -16 -2 -23 2 -23 12 0 11 -6 14 -18
11 -11 -4 -22 2 -30 14 -10 17 -10 20 3 20 8 0 15 4 15 9 0 6 -17 8 -37 6
l-38 -5 33 12 c34 12 45 34 12 25 -11 -3 -20 -1 -20 4 0 5 7 9 15 9 8 0 15 5
15 11 0 6 -9 8 -21 4 -16 -5 -22 -1 -32 24 -6 17 -15 31 -20 31 -5 0 -7 -7 -3
-15 3 -8 1 -15 -4 -15 -6 0 -10 7 -10 15 0 9 -10 15 -22 16 -18 1 -19 2 -5 6
12 3 16 10 12 24 -5 15 -1 19 15 19 12 0 18 4 15 10 -4 6 -14 9 -23 8 -9 -2
-17 4 -17 12 0 8 -9 15 -19 15 -13 0 -20 8 -22 28 -2 22 1 27 12 23 8 -3 14
-1 14 4 0 6 -13 10 -30 10 -16 0 -30 4 -30 10 0 5 5 9 12 7 6 -1 13 10 14 26
2 20 -2 27 -15 27 -11 0 -19 6 -18 13 1 41 -4 56 -18 51 -10 -4 -15 0 -15 15
0 12 -6 21 -15 21 -8 0 -15 5 -15 11 0 7 -8 18 -17 26 -17 14 -17 14 0 9 9 -3
17 -1 17 4 0 5 -11 12 -25 16 -14 3 -25 10 -25 15 0 5 7 6 15 3 8 -4 15 -1 15
5 0 6 -7 11 -15 11 -8 0 -15 9 -15 19 0 11 -8 22 -17 24 -17 4 -17 5 0 6 9 0
17 5 17 11 0 5 -6 9 -12 7 -7 -1 -13 5 -13 13 0 8 -8 18 -17 22 -12 5 -15 13
-11 25 6 15 4 16 -9 5 -13 -11 -15 -8 -12 18 2 16 -1 30 -6 30 -6 0 -10 4 -10
10 0 5 7 7 15 4 8 -4 15 -2 15 4 0 5 -11 13 -25 16 -16 4 -25 13 -25 26 0 13
-9 22 -25 26 -14 3 -25 10 -25 15 0 5 7 6 15 3 8 -4 15 -2 15 4 0 5 -11 13
-25 16 -14 4 -25 11 -25 16 0 5 7 7 15 4 8 -4 15 -2 15 4 0 5 -12 13 -26 16
-18 5 -24 11 -20 23 4 9 -1 22 -11 30 -17 13 -16 14 5 8 12 -4 22 -2 22 4 0 6
-11 13 -25 17 -19 5 -24 11 -20 25 7 21 -10 27 -19 7 -2 -7 -4 -4 -3 7 2 11 6
25 10 32 4 6 3 14 -2 18 -5 3 -13 -1 -18 -9 -7 -12 -11 -12 -28 1 -20 15 -20
15 3 8 24 -7 31 9 7 19 -8 3 -12 12 -9 21 3 8 1 15 -5 15 -7 0 -9 10 -5 26 5
19 4 25 -5 20 -6 -4 -9 -12 -6 -17 4 -5 1 -9 -5 -9 -7 0 -9 7 -6 17 4 9 1 20
-5 24 -9 5 -8 15 4 38 18 37 8 42 -13 7 -14 -23 -17 -23 -35 -9 -20 15 -20 15
3 8 30 -9 28 9 -3 33 -17 13 -22 23 -15 27 8 5 5 14 -9 26 -25 23 -27 31 -6
23 8 -4 15 -2 15 4 0 6 -6 12 -12 15 -10 3 -10 7 1 20 7 10 9 17 3 17 -6 0
-12 -6 -15 -12 -2 -7 -8 -10 -12 -6 -4 4 -2 14 5 23 7 9 8 15 2 15 -6 0 -12
-6 -15 -12 -2 -7 -8 -10 -12 -6 -4 4 -3 14 3 21 15 18 3 30 -15 15 -11 -8 -12
-7 -7 6 4 10 -1 25 -11 36 -14 15 -15 23 -6 33 15 19 2 30 -18 14 -14 -10 -14
-10 -4 4 17 21 5 33 -16 16 -14 -11 -14 -10 -2 6 13 16 13 20 0 28 -8 5 -10 9
-6 9 5 0 1 10 -7 22 -19 26 -20 38 -5 38 5 0 7 -4 4 -10 -3 -5 -1 -10 4 -10
14 0 14 3 -1 35 -12 26 -34 36 -25 10 4 -8 2 -17 -3 -20 -15 -9 -12 29 3 44
10 10 8 12 -7 9 -10 -2 -21 4 -23 12 -4 12 -3 12 5 1 7 -9 12 -10 16 -2 13 21
-3 28 -67 30 -59 1 -65 0 -71 -21z m589 -968 c3 -5 1 -10 -4 -10 -6 0 -11 5
-11 10 0 6 2 10 4 10 3 0 8 -4 11 -10z m205 -360 c0 -5 -4 -10 -10 -10 -5 0
-10 5 -10 10 0 6 5 10 10 10 6 0 10 -4 10 -10z m150 -330 c0 -5 -2 -10 -4 -10
-3 0 -8 5 -11 10 -3 6 -1 10 4 10 6 0 11 -4 11 -10z m55 -110 c3 -5 1 -10 -4
-10 -6 0 -11 5 -11 10 0 6 2 10 4 10 3 0 8 -4 11 -10z m40 -20 c3 -5 1 -10 -4
-10 -6 0 -11 5 -11 10 0 6 2 10 4 10 3 0 8 -4 11 -10z m-25 -10 c0 -5 -2 -10
-4 -10 -3 0 -8 5 -11 10 -3 6 -1 10 4 10 6 0 11 -4 11 -10z m8 -27 c-22 -6
-23 -17 -3 -33 9 -7 13 -20 10 -28 -3 -8 2 -23 11 -33 10 -11 12 -19 6 -19 -7
0 -12 6 -12 13 0 9 -2 9 -9 -1 -6 -10 -10 -10 -20 2 -7 8 -20 12 -29 9 -14 -4
-14 -3 -3 5 11 8 10 11 -5 15 -14 4 -13 6 6 5 44 -1 50 2 44 17 -4 8 -10 15
-16 15 -5 0 -6 -4 -3 -10 3 -5 2 -10 -3 -10 -6 0 -12 7 -16 15 -3 8 -1 15 5
15 6 0 9 6 6 13 -3 8 4 13 22 14 14 0 18 -1 9 -4z"/>
<path d="M2854 13481 c0 -11 3 -19 6 -19 18 2 30 -3 26 -10 -3 -5 4 -23 15
-41 11 -18 16 -37 13 -43 -4 -6 -3 -8 4 -4 6 3 13 2 17 -4 3 -5 1 -10 -5 -10
-8 0 -8 -4 0 -12 41 -49 49 -62 44 -69 -3 -5 0 -9 6 -9 6 0 9 -4 6 -9 -3 -5 1
-14 10 -21 8 -7 13 -19 10 -26 -3 -7 2 -18 10 -24 8 -7 14 -19 14 -26 0 -8 5
-14 11 -14 5 0 7 -4 4 -10 -3 -5 -1 -10 5 -10 7 0 10 -7 6 -15 -3 -8 0 -14 6
-12 7 1 13 -4 14 -10 1 -7 3 -16 4 -20 1 -5 2 -11 1 -15 0 -5 3 -8 8 -8 5 0
12 -14 16 -30 4 -17 11 -28 16 -25 5 4 6 -1 3 -10 -4 -8 -1 -21 5 -29 6 -7 7
-17 3 -21 -4 -5 -1 -5 6 -1 7 4 12 1 12 -9 0 -10 5 -13 12 -9 7 5 9 0 6 -14
-4 -15 -2 -19 8 -15 10 4 12 0 8 -11 -4 -9 -1 -16 6 -16 7 0 10 -7 6 -16 -4
-11 -2 -15 8 -11 10 4 12 0 8 -15 -3 -14 -1 -19 6 -14 8 5 14 -7 18 -33 4 -23
10 -38 15 -35 5 3 9 -2 9 -10 0 -9 4 -16 9 -16 5 0 12 -13 16 -30 4 -16 11
-32 16 -35 5 -4 9 -15 9 -26 0 -11 5 -17 10 -14 6 3 10 -1 10 -9 0 -9 4 -16 9
-16 5 0 12 -13 16 -30 4 -16 10 -30 13 -30 4 0 16 -20 27 -45 11 -25 23 -45
27 -45 5 0 8 -11 8 -25 0 -14 5 -25 10 -25 6 0 10 -7 10 -15 0 -8 5 -15 10
-15 6 0 10 -7 10 -15 0 -8 6 -15 13 -15 9 0 9 -2 -1 -9 -11 -7 -11 -9 2 -14 9
-4 16 -16 16 -27 0 -11 7 -20 16 -20 8 0 13 -4 9 -9 -3 -5 -1 -12 5 -16 6 -4
8 -11 5 -16 -4 -5 -2 -9 3 -9 6 0 13 -11 16 -25 4 -14 12 -25 19 -25 8 0 7 -4
-3 -10 -13 -8 -12 -10 4 -10 14 0 17 -6 14 -25 -3 -14 -1 -25 3 -25 5 0 11
-11 15 -25 3 -14 11 -22 17 -18 6 4 8 0 4 -10 -3 -10 -2 -17 3 -17 5 0 6 -7 3
-17 -5 -12 -3 -14 7 -8 10 6 12 4 7 -9 -4 -9 -3 -15 1 -13 9 6 27 -14 28 -30
2 -30 5 -34 15 -27 7 4 6 -2 -2 -17 -12 -23 -11 -23 6 -9 17 14 18 14 6 -9 -8
-15 -9 -21 -2 -17 6 4 11 2 11 -4 0 -6 5 -8 11 -4 7 4 7 -1 -1 -16 -7 -12 -8
-20 -3 -17 4 2 20 -13 35 -34 16 -22 21 -36 13 -32 -8 3 -15 8 -15 12 0 4 -7
16 -16 27 -14 18 -15 18 -4 -4 6 -12 8 -28 4 -35 -4 -6 -3 -9 1 -4 9 8 45 -20
45 -36 0 -6 -10 -2 -22 9 -13 10 -17 12 -10 4 6 -8 12 -18 12 -23 0 -4 -6 -5
-12 -1 -8 5 -7 -1 3 -16 8 -13 31 -32 50 -42 30 -16 31 -18 10 -18 -14 0 -34
8 -45 18 -21 17 -21 17 -3 -5 10 -12 35 -26 55 -32 37 -10 37 -10 5 -7 -18 1
-33 -1 -33 -6 0 -4 12 -9 28 -9 24 -2 23 -2 -8 -9 l-35 -7 35 -2 c29 -2 32 -4
15 -11 -18 -8 -19 -9 -1 -9 12 -1 16 -6 12 -16 -7 -20 3 -19 28 3 20 17 21 17
5 -3 -27 -33 -31 -45 -17 -45 15 1 68 74 68 95 0 8 8 18 18 24 15 8 15 13 4
31 -7 12 -18 33 -23 48 -10 26 -10 26 11 7 33 -30 32 -12 -3 46 -81 133 -107
178 -136 235 -30 60 -40 121 -22 140 6 5 2 72 -9 172 -22 193 -2 144 -308 752
-115 228 -214 430 -220 448 l-11 32 -183 0 c-175 0 -184 -1 -184 -19z m942
-1828 c-6 -6 -36 9 -36 18 0 5 9 4 20 -3 10 -7 18 -14 16 -15z m57 -20 c-7 -2
-19 -2 -25 0 -7 3 -2 5 12 5 14 0 19 -2 13 -5z"/>
<path d="M10585 13463 c0 -44 -24 -56 -56 -27 -34 31 -44 6 -30 -78 11 -61 10
-91 -2 -178 -9 -58 -22 -122 -31 -142 -19 -44 -19 -48 -6 -48 5 0 14 19 21 43
6 23 21 74 34 112 13 39 26 86 30 105 4 19 20 77 36 129 32 105 35 121 17 121
-8 0 -13 -14 -13 -37z"/>
<path d="M2650 13475 c0 -5 5 -17 10 -25 5 -8 10 -10 10 -5 0 6 -5 17 -10 25
-5 8 -10 11 -10 5z"/>
<path d="M7110 13476 c0 -2 7 -7 16 -10 8 -3 12 -2 9 4 -6 10 -25 14 -25 6z"/>
<path d="M10715 13415 c45 -28 85 -33 85 -10 0 11 -8 13 -30 9 -23 -5 -30 -3
-30 10 0 11 -9 16 -32 16 l-33 -1 40 -24z"/>
<path d="M10380 13409 c-6 -11 -10 -25 -8 -30 2 -5 8 4 15 21 13 34 9 40 -7 9z"/>
<path d="M6985 13410 c3 -5 11 -10 16 -10 6 0 7 5 4 10 -3 6 -11 10 -16 10 -6
0 -7 -4 -4 -10z"/>
<path d="M2670 13362 c0 -15 40 -56 47 -49 3 4 -3 15 -15 25 -12 11 -19 22
-15 26 3 3 1 6 -5 6 -7 0 -12 -4 -12 -8z"/>
<path d="M10352 13340 c-16 -26 -15 -153 2 -193 7 -18 23 -41 35 -51 25 -22
26 -18 7 19 -21 40 -39 160 -32 206 7 44 6 47 -12 19z"/>
<path d="M7160 13315 c0 -2 10 -10 23 -16 20 -11 21 -11 8 4 -13 16 -31 23
-31 12z"/>
<path d="M2715 13250 c3 -5 8 -10 11 -10 2 0 4 5 4 10 0 6 -5 10 -11 10 -5 0
-7 -4 -4 -10z"/>
<path d="M10734 13155 c-8 -20 4 -35 27 -35 21 0 25 20 7 38 -16 16 -27 15
-34 -3z"/>
<path d="M10788 13095 c-3 -14 -1 -28 3 -31 5 -3 9 9 9 25 0 38 -6 40 -12 6z"/>
<path d="M2805 13080 c-3 -5 -1 -10 4 -10 6 0 11 5 11 10 0 6 -2 10 -4 10 -3
0 -8 -4 -11 -10z"/>
<path d="M2823 13055 c-15 -16 -16 -25 -5 -25 4 0 13 9 20 20 14 23 3 26 -15
5z"/>
<path d="M9886 13051 c-5 -8 -9 -26 -8 -42 0 -16 -6 -30 -15 -33 -12 -5 -14 1
-8 36 5 33 4 40 -5 32 -16 -16 -32 -88 -20 -92 15 -5 12 -32 -2 -29 -8 1 -14
-10 -16 -25 -3 -22 2 -30 20 -37 32 -12 46 -30 50 -66 2 -17 9 13 17 71 14
103 6 216 -13 185z"/>
<path d="M8387 13020 c46 -74 166 -239 190 -261 l26 -24 -7 60 c-6 56 -41 135
-67 151 -6 3 -3 -5 6 -19 9 -15 15 -31 13 -38 -2 -6 -16 12 -31 40 -16 28 -32
51 -36 51 -5 0 -28 16 -52 35 -54 43 -67 44 -42 5z"/>
<path d="M9681 13000 c-1 -17 67 -120 79 -120 5 0 15 -2 23 -5 7 -3 -8 18 -36
47 -27 29 -53 62 -58 73 -5 13 -8 15 -8 5z"/>
<path d="M10432 12900 c-7 -11 -12 -32 -11 -47 1 -24 3 -21 15 16 15 50 14 60
-4 31z"/>
<path d="M2900 12900 c0 -5 5 -10 10 -10 6 0 10 5 10 10 0 6 -4 10 -10 10 -5
0 -10 -4 -10 -10z"/>
<path d="M2915 12860 c-3 -5 -1 -10 4 -10 6 0 11 5 11 10 0 6 -2 10 -4 10 -3
0 -8 -4 -11 -10z"/>
<path d="M10739 12825 c5 -17 19 -50 31 -75 l21 -45 -6 50 c-4 33 -15 58 -31
75 l-24 24 9 -29z"/>
<path d="M8390 12707 c0 -5 41 -14 145 -33 27 -5 28 -4 15 9 -14 15 -160 36
-160 24z"/>
<path d="M10792 12680 c0 -14 2 -19 5 -12 2 6 2 18 0 25 -3 6 -5 1 -5 -13z"/>
<path d="M2995 12680 c-3 -5 -1 -10 4 -10 6 0 11 5 11 10 0 6 -2 10 -4 10 -3
0 -8 -4 -11 -10z"/>
<path d="M3025 12670 c-3 -5 -1 -10 4 -10 6 0 11 5 11 10 0 6 -2 10 -4 10 -3
0 -8 -4 -11 -10z"/>
<path d="M3045 12630 c-3 -5 -1 -10 4 -10 6 0 11 5 11 10 0 6 -2 10 -4 10 -3
0 -8 -4 -11 -10z"/>
<path d="M3065 12590 c-3 -5 -1 -10 4 -10 6 0 11 5 11 10 0 6 -2 10 -4 10 -3
0 -8 -4 -11 -10z"/>
<path d="M10240 12550 c-30 -47 -36 -79 -16 -83 5 -1 17 21 26 48 9 28 20 58
25 68 14 33 -3 17 -35 -33z"/>
<path d="M3085 12550 c-3 -5 -1 -10 4 -10 6 0 11 5 11 10 0 6 -2 10 -4 10 -3
0 -8 -4 -11 -10z"/>
<path d="M9704 12528 c-4 -13 -7 -104 -6 -203 2 -178 3 -181 34 -252 17 -40
29 -75 26 -79 -4 -3 -16 0 -28 6 -17 9 -24 9 -33 -2 -7 -8 -46 -40 -87 -70
-41 -31 -90 -74 -109 -97 -19 -22 -40 -41 -46 -41 -6 0 -27 -16 -46 -36 l-34
-36 45 22 c55 28 206 126 215 140 4 6 10 8 14 5 5 -2 23 16 41 41 37 53 67 57
62 9 -2 -17 -5 -73 -5 -126 l-2 -96 -62 54 c-40 35 -60 47 -56 35 7 -30 -38
-115 -66 -122 -20 -4 -32 -17 -48 -48 -1 -2 -10 1 -21 7 -15 8 -23 7 -32 -4
-12 -15 -4 -59 10 -50 10 6 35 -23 26 -32 -3 -4 -12 -1 -18 5 -32 32 -58 4
-58 -63 0 -17 -5 -36 -12 -43 -9 -9 -8 -12 5 -12 9 0 24 9 34 19 10 11 34 21
53 23 27 2 36 8 38 26 4 28 58 70 102 78 31 7 33 6 27 -18 -5 -18 1 -35 23
-64 36 -48 37 -57 6 -73 -18 -10 -35 -11 -72 -3 -27 6 -49 10 -49 9 0 -1 -8
-16 -17 -34 -10 -17 -18 -34 -18 -38 0 -4 23 -4 50 0 60 8 64 -2 13 -41 l-38
-28 43 -9 c35 -7 45 -5 64 12 12 12 26 21 31 21 5 0 -1 8 -14 19 -20 16 -22
22 -11 45 14 31 48 41 98 27 31 -8 41 -8 55 4 9 9 24 13 33 9 13 -5 17 -2 14
12 -2 14 4 20 22 22 14 2 38 16 54 30 25 24 27 24 17 5 -14 -27 -14 -33 -1
-33 5 0 17 14 25 31 15 28 18 29 33 16 9 -8 42 -27 72 -43 45 -22 68 -28 125
-28 88 0 145 18 145 46 0 18 3 18 55 -10 l55 -30 0 66 c0 52 6 76 25 110 35
62 12 51 -30 -14 -52 -80 -118 -104 -197 -71 -40 17 -43 41 -7 52 10 3 32 26
49 51 l30 45 -34 14 c-52 22 -62 67 -22 104 22 21 28 22 63 11 21 -7 49 -19
61 -27 23 -14 45 -13 97 7 l25 10 -20 51 c-10 29 -17 56 -14 61 12 19 32 6 38
-25 6 -33 14 -39 79 -66 35 -14 35 -54 0 -59 -28 -4 -30 -22 -3 -29 11 -3 20
-10 20 -15 0 -5 9 -6 20 -3 14 4 30 -2 52 -20 23 -19 34 -23 42 -15 8 8 6 15
-6 24 -27 20 -22 28 11 21 16 -3 32 -2 35 3 3 5 -21 15 -53 21 -42 8 -60 17
-63 29 -7 25 70 192 99 217 27 24 30 45 6 45 -17 1 -17 1 0 14 25 19 25 106
-1 106 -10 0 -23 5 -28 10 -8 8 -15 6 -24 -5 -7 -8 -21 -15 -32 -15 -12 0 -18
-5 -15 -13 6 -17 -25 -79 -43 -85 -13 -5 -13 -3 -1 11 15 19 8 22 -19 7 -11
-6 -18 -16 -16 -23 1 -6 1 -9 -1 -5 -3 5 -13 3 -24 -3 -11 -5 -25 -7 -31 -3
-7 5 -8 3 -4 -5 12 -18 -12 -67 -40 -81 -21 -12 -27 -11 -47 8 -27 25 -37 28
-37 9 0 -7 -13 -26 -28 -40 l-29 -28 -1 46 c0 31 5 48 16 54 13 7 10 11 -15
25 -17 8 -50 18 -74 22 -66 9 -71 11 -61 31 5 10 12 41 16 68 l6 50 -20 -33
c-11 -18 -20 -43 -19 -55 4 -45 -1 -55 -31 -62 -26 -6 -30 -11 -31 -43 -1 -36
-1 -36 -14 13 -7 28 -13 42 -14 33 0 -9 -8 -21 -18 -26 -10 -6 -14 -16 -10
-28 7 -18 6 -18 -8 0 -8 11 -15 24 -15 29 0 10 -22 36 -116 140 l-52 58 -18
-58 c-9 -32 -22 -64 -27 -70 -7 -9 -4 -13 10 -13 26 0 95 -74 128 -137 35 -68
41 -117 21 -173 -14 -40 -14 -46 1 -62 16 -17 14 -21 -22 -58 -39 -39 -38 -53
0 -27 29 20 55 28 55 17 0 -10 -102 -81 -108 -75 -2 2 1 27 7 56 12 56 12 62
-7 51 -10 -7 -19 -35 -21 -69 -1 -6 -11 -13 -23 -15 -32 -5 -35 -28 -4 -28 35
0 33 -16 -6 -40 -41 -24 -50 -18 -42 30 6 34 3 42 -22 65 -20 19 -25 28 -16
37 8 8 7 14 -4 22 -21 16 -31 98 -21 186 4 41 5 107 2 145 -5 57 -2 77 14 111
12 25 22 73 26 125 l7 84 -56 113 c-30 61 -58 112 -60 112 -3 0 -8 -10 -12
-22z m1061 -403 c-16 -13 -31 -22 -34 -20 -5 6 41 44 54 44 6 0 -3 -11 -20
-24z m25 -30 c0 -2 -10 -10 -22 -16 -21 -11 -22 -11 -9 4 13 16 31 23 31 12z
m-130 -150 c19 12 11 -71 -9 -93 -24 -29 -27 -28 -46 9 -19 36 -12 48 16 30
32 -19 34 -5 5 33 -33 44 -33 53 -1 32 14 -9 30 -14 35 -11z m-340 -12 c-1
-27 -15 -52 -31 -56 -23 -6 -25 11 -3 41 15 21 34 30 34 15z m-553 -263 c-6
-17 -15 -30 -19 -30 -11 0 -10 15 3 44 16 35 30 23 16 -14z m693 -172 c0 -23
-9 -22 -39 1 l-23 18 31 0 c23 0 31 -5 31 -19z"/>
<path d="M10258 12507 c-3 -19 -2 -25 4 -19 6 6 8 18 6 28 -3 14 -5 12 -10 -9z"/>
<path d="M3125 12470 c3 -5 8 -10 11 -10 2 0 4 5 4 10 0 6 -5 10 -11 10 -5 0
-7 -4 -4 -10z"/>
<path d="M9080 12396 c0 -3 21 -18 48 -34 26 -16 64 -43 86 -61 41 -33 66 -40
66 -18 0 7 -15 18 -32 25 -18 6 -56 27 -84 45 -49 33 -84 50 -84 43z"/>
<path d="M8890 12353 c0 -12 30 -29 99 -57 60 -24 70 -24 148 -1 40 12 13 27
-36 20 -47 -6 -148 12 -189 34 -12 6 -22 8 -22 4z"/>
<path d="M9990 12343 c0 -11 27 -52 57 -84 13 -14 28 -39 33 -55 l8 -29 1 28
c1 24 4 27 24 22 14 -3 10 1 -11 12 -18 10 -50 40 -72 67 -22 26 -40 44 -40
39z"/>
<path d="M3190 12330 c0 -5 5 -10 10 -10 6 0 10 5 10 10 0 6 -4 10 -10 10 -5
0 -10 -4 -10 -10z"/>
<path d="M10310 12309 c-18 -33 -6 -42 13 -9 10 16 14 30 8 30 -6 0 -15 -9
-21 -21z"/>
<path d="M10324 12213 c-51 -54 -70 -83 -54 -83 5 0 10 3 10 8 0 4 17 25 38
47 48 51 66 75 58 75 -3 0 -27 -21 -52 -47z"/>
<path d="M3240 12230 c0 -5 5 -10 10 -10 6 0 10 5 10 10 0 6 -4 10 -10 10 -5
0 -10 -4 -10 -10z"/>
<path d="M3275 12200 c-3 -5 -1 -10 4 -10 6 0 11 5 11 10 0 6 -2 10 -4 10 -3
0 -8 -4 -11 -10z"/>
<path d="M10430 12180 c-12 -8 -11 -10 7 -10 12 0 25 5 28 10 8 13 -15 13 -35
0z"/>
<path d="M10111 12084 c0 -11 3 -14 6 -6 3 7 2 16 -1 19 -3 4 -6 -2 -5 -13z"/>
<path d="M3340 12070 c0 -5 5 -10 10 -10 6 0 10 5 10 10 0 6 -4 10 -10 10 -5
0 -10 -4 -10 -10z"/>
<path d="M9860 12030 c0 -33 25 -157 39 -195 6 -16 14 -36 16 -43 4 -11 8 -10
21 3 23 23 30 10 10 -20 -18 -27 -28 -83 -16 -90 4 -3 15 6 24 20 12 19 14 30
7 44 -8 14 -7 22 4 31 10 8 12 18 6 29 -4 9 -11 33 -14 54 -3 22 -18 54 -32
73 -14 19 -35 53 -45 76 -16 36 -20 39 -20 18z"/>
<path d="M3350 12000 c0 -5 5 -10 10 -10 6 0 10 5 10 10 0 6 -4 10 -10 10 -5
0 -10 -4 -10 -10z"/>
<path d="M4030 11995 c0 -24 56 -135 67 -135 19 0 16 14 -13 67 -28 51 -54 84
-54 68z"/>
<path d="M3390 11970 c0 -5 5 -10 10 -10 6 0 10 5 10 10 0 6 -4 10 -10 10 -5
0 -10 -4 -10 -10z"/>
<path d="M3402 11911 c4 -13 18 -16 19 -4 0 4 -5 9 -11 12 -7 2 -11 -2 -8 -8z"/>
<path d="M10740 11910 c0 -6 -9 -30 -20 -53 l-20 -42 25 30 c22 26 35 75 20
75 -3 0 -5 -5 -5 -10z"/>
<path d="M3440 11880 c0 -5 5 -10 10 -10 6 0 10 5 10 10 0 6 -4 10 -10 10 -5
0 -10 -4 -10 -10z"/>
<path d="M3460 11850 c0 -5 5 -10 11 -10 5 0 7 5 4 10 -3 6 -8 10 -11 10 -2 0
-4 -4 -4 -10z"/>
<path d="M3500 11830 c0 -5 5 -10 10 -10 6 0 10 5 10 10 0 6 -4 10 -10 10 -5
0 -10 -4 -10 -10z"/>
<path d="M3510 11800 c0 -5 5 -10 10 -10 6 0 10 5 10 10 0 6 -4 10 -10 10 -5
0 -10 -4 -10 -10z"/>
<path d="M4090 11801 c-8 -6 -17 -8 -21 -5 -11 7 -32 -25 -26 -40 7 -18 79
-56 105 -56 33 0 63 32 56 58 -11 38 -79 64 -114 43z"/>
<path d="M3525 11770 c3 -5 8 -10 11 -10 2 0 4 5 4 10 0 6 -5 10 -11 10 -5 0
-7 -4 -4 -10z"/>
<path d="M9500 11750 c-25 -16 -39 -30 -32 -30 21 0 69 28 75 45 4 8 5 15 4
14 -1 0 -22 -13 -47 -29z"/>
<path d="M3505 11730 c4 -6 11 -8 16 -5 14 9 11 15 -7 15 -8 0 -12 -5 -9 -10z"/>
<path d="M3550 11720 c0 -5 5 -10 10 -10 6 0 10 5 10 10 0 6 -4 10 -10 10 -5
0 -10 -4 -10 -10z"/>
<path d="M3710 11711 c0 -6 4 -13 10 -16 6 -3 7 1 4 9 -7 18 -14 21 -14 7z"/>
<path d="M9390 11703 c-25 -9 -39 -18 -33 -20 16 -6 81 15 88 28 8 12 -1 11
-55 -8z"/>
<path d="M3580 11670 c0 -5 5 -10 10 -10 6 0 10 5 10 10 0 6 -4 10 -10 10 -5
0 -10 -4 -10 -10z"/>
<path d="M3536 11632 c-9 -14 58 -74 76 -67 8 3 22 0 29 -8 16 -15 54 -37 65
-37 4 0 -6 12 -22 26 -16 15 -21 24 -12 21 12 -4 15 -2 11 9 -4 11 -8 12 -20
2 -11 -9 -16 -9 -23 3 -7 11 -12 11 -21 2 -9 -9 -19 -4 -44 23 -18 20 -35 31
-39 26z"/>
<path d="M3538 11513 c7 -3 16 -2 19 1 4 3 -2 6 -13 5 -11 0 -14 -3 -6 -6z"/>
<path d="M10750 11485 c0 -8 -7 -15 -15 -15 -8 0 -28 -20 -45 -45 -17 -25 -38
-45 -48 -45 -21 0 36 -54 87 -81 67 -36 71 -31 71 76 0 78 -3 95 -15 95 -8 0
-15 7 -15 15 0 8 -4 15 -10 15 -5 0 -10 -7 -10 -15z"/>
<path d="M3680 11486 c0 -2 7 -7 16 -10 8 -3 12 -2 9 4 -6 10 -25 14 -25 6z"/>
<path d="M9195 11370 c-16 -11 -31 -28 -31 -37 -1 -10 -7 -31 -13 -47 -14 -34
2 -64 60 -114 l36 -31 59 35 c63 39 117 53 128 35 10 -16 36 -14 36 3 0 8 -7
16 -15 20 -19 7 -19 25 1 47 24 27 11 47 -30 47 -31 0 -34 -2 -24 -18 6 -9 8
-26 4 -36 -8 -18 -9 -18 -17 4 -5 12 -20 27 -34 32 -14 5 -25 16 -25 25 0 18
-1 18 -34 5 -23 -8 -28 -6 -41 20 -18 35 -21 36 -60 10z"/>
<path d="M9790 11356 c-32 -19 -33 -21 -13 -24 17 -3 25 -14 33 -42 7 -26 23
-49 45 -66 30 -22 42 -26 81 -21 66 7 81 27 21 27 -62 0 -114 44 -125 106 l-7
40 -35 -20z"/>
<path d="M10374 11348 c4 -13 13 -79 21 -147 8 -68 16 -126 19 -129 9 -9 7 76
-4 168 -13 110 -18 130 -31 130 -7 0 -9 -9 -5 -22z"/>
<path d="M9980 11342 c0 -11 81 -72 96 -72 25 0 1 40 -37 60 -42 21 -59 25
-59 12z"/>
<path d="M10622 11328 c2 -6 15 -18 29 -27 l24 -15 -24 27 c-26 29 -35 34 -29
15z"/>
<path d="M10430 11287 c0 -8 10 -23 23 -35 18 -17 26 -19 35 -10 18 18 15 26
-18 43 -36 18 -40 19 -40 2z"/>
<path d="M10153 11283 c-14 -5 -18 -23 -5 -23 5 0 17 7 28 15 14 11 15 14 4
14 -8 0 -21 -3 -27 -6z"/>
<path d="M9670 11270 c0 -5 -6 -10 -14 -10 -7 0 -34 -9 -59 -20 -31 -14 -56
-18 -74 -14 -22 5 -26 4 -16 -6 12 -13 83 -10 116 4 26 12 21 -13 -8 -36 -14
-11 -25 -26 -25 -34 0 -18 3 -18 51 7 23 11 44 18 47 14 7 -7 -39 -45 -48 -40
-11 7 -32 -13 -26 -24 14 -22 36 -10 76 40 l40 51 0 -31 c0 -38 20 -133 30
-144 4 -5 13 13 19 39 10 39 9 56 -5 103 -21 70 -29 79 -51 59 -16 -14 -22
-14 -48 -3 -27 12 -27 13 -7 14 15 1 22 7 22 21 0 11 -4 20 -10 20 -5 0 -10
-4 -10 -10z"/>
<path d="M10075 11230 c-21 -8 -53 -40 -40 -40 12 0 65 34 65 42 0 9 1 9 -25
-2z"/>
<path d="M10580 11185 c0 -14 4 -25 8 -25 4 0 9 11 10 25 1 14 -3 25 -8 25 -6
0 -10 -11 -10 -25z"/>
<path d="M10770 11196 c0 -2 8 -10 18 -17 15 -13 16 -12 3 4 -13 16 -21 21
-21 13z"/>
<path d="M9360 11147 c-30 -16 -63 -35 -73 -42 -17 -12 -17 -13 1 -18 11 -2
26 -1 33 4 29 18 36 9 35 -43 -1 -71 17 -75 27 -7 4 30 13 59 20 64 16 12 27
49 18 63 -3 5 -29 -3 -61 -21z"/>
<path d="M9470 11148 c0 -7 5 -20 10 -28 8 -12 10 -11 10 7 0 12 -4 25 -10 28
-5 3 -10 0 -10 -7z"/>
<path d="M8979 11093 c-4 -24 6 -51 27 -76 31 -37 30 -43 -8 -56 l-32 -11 23
-21 c19 -18 24 -19 34 -7 7 8 28 21 47 28 38 14 60 29 60 39 0 3 -18 14 -39
23 -22 10 -52 33 -68 53 -27 34 -42 43 -44 28z"/>
<path d="M1074 11062 c4 -7 0 -12 -11 -13 -16 0 -16 -1 2 -9 19 -8 19 -9 -2
-9 -12 -1 -23 4 -25 10 -2 6 -14 1 -27 -10 -26 -23 -36 -27 -26 -11 10 16 -5
12 -43 -12 -93 -58 -95 -233 -2 -350 l29 -36 -22 -15 c-21 -14 -20 -15 18 -6
52 11 87 11 105 -1 22 -15 -27 -55 -91 -74 -102 -31 -146 -58 -160 -99 -7 -21
-16 -40 -20 -43 -5 -3 -4 9 2 25 6 16 9 42 7 58 -3 27 -4 27 -25 -16 -12 -24
-19 -49 -16 -57 3 -8 -26 5 -63 27 -38 23 -83 48 -102 56 -33 14 -40 41 -9 35
18 -3 47 34 47 61 0 15 -3 16 -20 7 -11 -6 -20 -17 -20 -24 0 -15 -43 -30 -48
-17 -1 4 -9 17 -16 27 -14 18 -15 18 -36 -1 -34 -30 -80 -101 -80 -122 0 -38
79 -63 101 -31 6 9 83 -30 182 -90 57 -35 82 -38 56 -6 -12 15 -12 17 1 12 9
-3 17 -23 21 -54 8 -63 28 -102 78 -149 37 -35 38 -38 22 -55 -31 -35 -37 -45
-43 -68 -4 -15 -2 -25 8 -29 8 -3 14 -14 14 -25 0 -14 -5 -18 -16 -14 -8 3
-13 2 -10 -3 3 -5 -1 -12 -10 -15 -8 -3 -12 -10 -9 -16 3 -5 2 -10 -4 -10 -6
0 -8 -7 -5 -15 4 -8 10 -15 15 -15 6 0 20 -9 32 -21 17 -15 18 -19 5 -14 -15
6 -18 2 -18 -23 0 -17 -5 -34 -12 -38 -7 -5 -9 -1 -6 12 4 14 0 20 -13 20 -14
0 -15 -3 -7 -14 8 -9 8 -16 0 -24 -7 -7 -12 -22 -12 -35 0 -13 -5 -23 -11 -23
-5 0 -8 -4 -5 -9 4 -5 0 -11 -6 -14 -10 -3 -9 -8 2 -22 11 -14 11 -17 1 -11
-10 7 -12 3 -6 -13 3 -12 2 -21 -3 -21 -6 0 -12 5 -14 12 -2 6 -4 -5 -4 -25 0
-20 3 -34 7 -31 4 2 9 -2 12 -9 5 -13 -16 -50 -24 -42 -3 2 -5 -4 -6 -13 -1
-9 -4 -34 -6 -54 -3 -21 -1 -36 3 -33 10 6 21 -21 13 -29 -9 -9 -35 -7 -29 2
3 5 -7 17 -21 27 l-26 20 24 6 c22 5 22 6 -7 10 -33 5 -44 -15 -15 -26 13 -5
14 -7 1 -15 -13 -8 -12 -10 2 -10 9 0 20 -5 23 -10 4 -7 -3 -9 -22 -5 -18 4
-23 3 -15 -2 8 -6 10 -17 6 -28 -7 -17 -6 -18 15 -3 22 16 61 14 61 -3 0 -5
-3 -8 -7 -8 -5 1 -19 0 -33 -1 l-25 -2 25 -8 c21 -7 22 -8 5 -9 -15 -1 -17 -3
-6 -10 16 -11 6 -32 -13 -25 -7 3 -19 -2 -26 -11 -7 -9 -8 -15 -2 -15 6 0 13
6 15 13 3 6 6 -4 6 -25 1 -20 -4 -39 -11 -41 -8 -3 -5 -6 5 -6 12 -1 15 -5 11
-13 -5 -7 -7 -25 -6 -40 1 -15 -2 -28 -7 -28 -4 0 -8 -12 -8 -27 0 -26 0 -26
15 -7 13 17 14 17 8 1 -3 -10 -6 -21 -6 -23 0 -2 -9 -4 -19 -4 -11 0 -23 -4
-26 -10 -3 -5 -1 -10 4 -10 6 0 12 -10 12 -22 1 -17 2 -19 6 -5 2 9 11 17 19
17 8 0 12 -4 9 -10 -3 -5 -1 -10 5 -10 6 0 9 -4 6 -8 -3 -5 6 -19 19 -30 14
-12 25 -17 25 -12 0 6 5 10 11 10 7 0 9 -10 7 -24 -4 -17 -1 -23 9 -19 7 3 13
9 13 13 0 4 9 10 20 13 12 3 20 14 20 26 0 21 1 21 25 5 14 -9 25 -21 25 -28
0 -6 -4 -6 -9 3 -6 9 -11 10 -15 2 -8 -13 -8 -13 26 -15 15 -1 24 2 22 6 -3 4
4 8 16 8 11 0 23 7 26 15 4 8 10 13 14 10 5 -3 11 4 15 15 3 11 14 20 23 20
14 0 13 -2 -2 -13 -17 -13 -17 -14 -1 -31 10 -9 20 -14 24 -10 3 4 0 9 -6 11
-20 7 -15 23 6 23 11 0 22 4 26 10 3 5 12 7 20 3 11 -3 15 2 15 18 0 19 -2 21
-10 9 -7 -12 -10 -8 -10 14 0 29 0 29 22 10 21 -19 21 -18 -1 14 -24 35 -24
53 1 29 8 -8 24 -18 36 -21 19 -6 22 -4 22 17 0 19 5 24 23 22 15 -2 26 5 34
21 6 13 8 22 4 20 -4 -3 -13 -1 -21 5 -8 5 -10 9 -4 9 7 0 14 10 17 21 4 15
11 20 23 15 14 -5 15 -4 4 9 -7 9 -20 13 -29 10 -13 -5 -14 -4 -3 6 14 15 16
43 2 34 -14 -9 -12 2 6 30 9 14 21 22 31 18 11 -5 12 -7 2 -14 -9 -5 -5 -11
14 -20 26 -12 31 -20 28 -48 -2 -7 2 -10 8 -6 16 9 14 30 -4 45 -8 7 -13 16
-10 20 3 5 1 11 -4 15 -6 3 -8 12 -4 20 3 9 -1 16 -8 17 -8 0 -18 2 -24 3 -5
2 -15 3 -22 4 -7 1 -10 8 -6 18 4 11 3 14 -5 9 -8 -5 -9 -1 -4 14 7 20 30 28
25 9 -2 -4 3 -6 10 -3 9 3 13 -3 13 -17 -1 -13 6 -23 17 -25 9 -1 15 2 12 6
-3 5 -2 11 3 14 4 2 7 20 7 39 -1 31 1 35 22 32 14 -1 23 3 23 11 0 14 -20 15
-31 2 -3 -5 -14 -1 -25 8 -19 15 -19 16 1 10 19 -6 19 -5 2 8 -16 13 -16 14
-1 20 9 4 14 9 11 13 -4 3 -18 -2 -32 -11 -26 -17 -27 -17 -23 6 2 13 9 22 16
20 8 -1 11 2 7 8 -3 5 1 10 9 10 8 0 17 3 19 8 3 4 -6 7 -19 7 -13 0 -24 -3
-24 -7 0 -5 -4 -8 -10 -8 -5 0 -7 7 -4 15 4 9 1 15 -7 15 -10 0 -10 3 -1 12 8
8 15 8 27 -2 13 -11 19 -10 35 5 10 9 20 29 22 43 2 17 10 28 23 31 15 2 17 0
9 -10 -16 -21 -26 -51 -14 -44 6 3 10 -2 10 -12 0 -15 2 -16 11 -3 8 11 12 12
16 3 2 -7 10 -13 16 -13 6 0 -1 13 -16 28 -19 20 -23 29 -13 29 8 0 15 -3 14
-6 -2 -19 4 -22 19 -10 11 10 14 10 9 2 -4 -7 -3 -13 3 -13 17 0 18 25 2 37
-9 7 -11 13 -4 13 14 0 11 23 -6 44 -9 11 -10 16 -2 16 6 0 11 -4 11 -10 0 -5
5 -10 11 -10 5 0 8 4 5 9 -5 8 42 36 57 33 4 -1 7 3 7 8 0 6 10 10 23 10 32 0
38 9 26 33 -8 14 -8 18 0 12 7 -4 18 -1 26 5 8 7 15 9 15 4 0 -4 6 0 13 10 10
14 18 15 39 7 23 -9 26 -8 21 6 -5 13 -2 15 15 11 12 -4 20 -2 16 3 -7 12 13
11 37 -2 12 -6 25 -7 32 -1 17 13 90 15 82 2 -3 -6 0 -7 9 -4 9 3 14 9 12 13
-2 3 9 6 25 6 16 0 29 -4 29 -8 0 -5 7 -1 16 7 16 17 34 21 34 8 0 -4 11 -9
25 -10 14 -1 25 2 25 6 0 8 114 6 138 -3 12 -4 13 -3 2 10 -11 13 -8 15 19 15
17 0 31 4 31 10 0 5 -3 9 -7 8 -12 -3 -57 23 -66 39 -5 7 -12 11 -16 8 -5 -2
-14 2 -21 10 -7 8 -23 15 -36 15 -13 0 -24 4 -24 10 0 5 -7 7 -15 3 -9 -3 -15
-2 -14 3 1 5 1 15 0 22 -2 21 -21 3 -22 -21 -1 -20 -2 -21 -6 -2 -5 20 -20 35
-36 35 -5 0 -5 -5 -1 -12 5 -8 2 -9 -12 -4 -36 15 -119 21 -208 16 -75 -4 -89
-3 -97 12 -7 13 -15 15 -36 9 -24 -7 -66 -6 -135 1 -9 1 -14 7 -11 12 4 5 -1
7 -10 3 -9 -3 -19 -2 -23 4 -3 6 -12 8 -20 5 -8 -3 -14 -2 -14 2 0 4 -14 8
-32 9 -44 3 -62 23 -21 23 18 0 35 5 38 10 4 6 10 8 15 5 4 -3 7 2 6 10 -1 9
-24 30 -52 48 -27 18 -50 40 -52 50 -10 52 66 75 283 82 235 8 375 21 375 34
-1 26 -26 36 -132 51 -31 4 -60 10 -65 13 -5 3 -29 8 -53 11 -132 17 -277 72
-324 123 l-26 28 24 12 c51 27 167 34 631 38 264 3 543 7 620 10 305 12 633
-35 706 -101 11 -9 19 -13 19 -7 0 17 -34 42 -79 57 -60 22 -230 53 -336 62
-49 4 -98 9 -107 10 -10 1 -42 2 -71 3 -45 1 -56 5 -66 24 -9 19 -10 19 -6 2
4 -15 0 -21 -15 -22 -11 -1 -20 2 -20 8 0 5 -5 9 -11 9 -5 0 -7 -5 -3 -12 4
-7 3 -8 -4 -4 -18 11 -14 24 9 31 11 4 18 9 16 11 -8 9 -56 -19 -50 -29 7 -12
-38 1 -52 15 -7 7 -6 12 2 15 7 2 9 11 6 19 -3 8 0 14 6 14 6 0 11 5 11 11 0
8 -5 8 -15 -1 -12 -10 -16 -9 -21 4 -8 20 -18 20 -38 1 -13 -13 -16 -13 -23
-1 -7 12 -11 12 -28 -1 -19 -15 -19 -15 -1 -9 11 4 23 1 27 -6 6 -9 13 -8 28
6 19 17 20 17 30 -3 16 -29 13 -39 -4 -17 -17 23 -20 14 -5 -14 8 -15 6 -20
-13 -26 -12 -5 -32 -9 -44 -9 -17 -1 -20 2 -11 13 8 9 13 10 18 2 7 -12 40 -3
40 10 0 20 -22 19 -62 -1 -24 -12 -55 -23 -71 -24 -26 -2 -27 -1 -10 18 17 19
17 20 1 14 -28 -10 -21 8 8 22 22 10 28 8 44 -11 11 -13 19 -19 20 -14 0 5 -8
18 -17 28 -15 17 -15 21 -3 30 12 8 11 9 -4 4 -11 -4 -23 -1 -29 6 -6 9 -7 8
-3 -4 6 -20 -9 -25 -18 -5 -3 6 -3 2 -1 -9 4 -17 -1 -24 -25 -34 -31 -13 -43
-37 -12 -25 14 5 15 4 4 -7 -17 -18 -56 21 -46 47 7 17 8 17 20 0 12 -17 14
-17 31 0 16 17 16 17 -5 11 -23 -8 -32 9 -9 17 8 3 6 10 -8 26 -16 19 -17 24
-5 31 9 6 10 10 4 10 -7 0 -26 -13 -44 -30 -18 -16 -29 -30 -24 -30 4 0 15 7
25 16 16 15 20 15 34 1 10 -11 12 -18 4 -23 -6 -3 -16 0 -21 7 -8 11 -9 11 -5
-2 3 -10 -4 -25 -19 -38 -26 -23 -34 -12 -8 13 27 27 2 17 -27 -10 -16 -16
-25 -33 -22 -43 4 -14 3 -14 -6 -1 -10 13 -12 13 -22 0 -9 -13 -10 -12 -5 2 6
21 -9 32 -47 34 -21 1 -25 -1 -17 -11 12 -15 -3 -30 -20 -20 -5 3 -19 1 -31
-6 -17 -9 -20 -8 -14 2 6 9 3 11 -8 6 -11 -4 -14 -2 -11 7 7 18 -27 30 -37 14
-4 -6 -5 -16 -2 -21 3 -5 -5 -3 -18 3 -33 17 -38 24 -13 16 15 -5 24 -2 28 10
6 16 -8 33 -26 34 -13 0 -9 -18 5 -24 6 -3 3 -4 -8 -1 -15 3 -25 -3 -37 -23
-13 -20 -18 -22 -18 -9 0 9 -4 17 -10 17 -5 0 -7 7 -4 15 4 8 1 15 -5 15 -6 0
-11 -4 -11 -8 0 -5 -7 -17 -15 -28 -14 -17 -14 -16 0 13 19 39 19 49 1 34 -7
-6 -20 -9 -28 -6 -10 4 -19 -4 -28 -25 -7 -17 -17 -33 -22 -36 -5 -3 0 14 13
37 12 24 26 47 32 50 5 4 0 12 -13 19 -24 13 -43 4 -20 -10 8 -6 11 -10 5 -10
-5 0 -16 4 -23 8 -18 12 -4 45 16 37 8 -3 19 0 23 7 7 10 11 10 21 0 9 -9 9
-12 0 -12 -7 0 -12 -4 -12 -10 0 -16 17 -12 24 6 7 19 -25 49 -35 33 -3 -5
-13 -7 -22 -3 -10 3 -17 1 -17 -6 0 -7 -8 -9 -22 -5 -23 7 -23 7 -3 -10 20
-16 20 -16 -2 -12 -20 5 -39 -15 -34 -36 1 -5 -8 -6 -19 -2 -11 3 -20 2 -20
-3 0 -6 -9 -8 -20 -5 -22 6 -24 11 -11 32 6 10 13 11 29 2 27 -14 29 -14 36 5
4 10 -1 22 -11 30 -11 8 -13 13 -5 14 14 0 17 20 3 20 -18 0 -21 -33 -4 -47
17 -13 16 -13 -7 -7 -14 4 -31 9 -37 11 -7 3 -13 0 -13 -7 0 -7 -7 -10 -15 -6
-8 3 -15 1 -15 -4 0 -6 5 -10 11 -10 6 0 8 -7 5 -15 -3 -9 1 -18 9 -21 14 -6
10 -34 -6 -34 -4 0 -6 7 -3 15 4 8 1 15 -5 15 -7 0 -11 6 -9 13 2 7 -1 13 -7
14 -5 0 -9 -3 -7 -8 1 -5 -3 -9 -9 -9 -6 0 -9 6 -6 13 3 6 8 20 12 30 4 9 3
17 -3 17 -6 0 -15 -13 -20 -30 -9 -23 -8 -31 3 -37 10 -6 11 -13 5 -23 -8 -13
-10 -12 -10 3 0 9 -5 17 -11 17 -8 0 -9 11 -4 33 4 17 7 38 8 45 0 6 4 12 9
12 4 0 8 5 8 10 0 20 -20 9 -26 -14 -4 -17 -11 -22 -25 -19 -26 7 -20 43 7 43
4 0 1 -7 -6 -15 -7 -9 -8 -15 -2 -15 16 0 24 33 10 42 -7 4 -16 8 -19 8 -8 0
-23 -31 -21 -42 1 -5 -3 -8 -8 -8 -12 0 -12 2 0 34 6 17 6 26 0 26 -5 0 -12
-11 -16 -25 -3 -14 -10 -25 -15 -25 -5 0 -6 7 -3 15 4 8 1 15 -5 15 -6 0 -12
-7 -12 -15 -3 -29 -4 -33 -12 -42 -5 -4 -6 8 -3 29 5 34 3 37 -26 47 -38 13
-38 13 -38 1 0 -5 3 -9 8 -9 4 1 10 0 15 -1 4 -1 12 -3 17 -4 6 0 10 -4 10 -8
0 -7 -5 -10 -12 -7 -31 9 -48 7 -48 -6 0 -8 -4 -15 -9 -15 -5 0 -7 9 -4 20 5
17 0 20 -27 20 -27 0 -30 3 -25 20 4 14 2 20 -9 20 -10 0 -13 6 -10 15 4 8 1
15 -5 15 -6 0 -11 -7 -11 -15 0 -8 -4 -15 -9 -15 -5 0 -7 8 -4 18 3 14 -3 18
-28 20 -50 4 -48 12 2 12 29 0 39 3 30 9 -8 5 -41 8 -75 6 -34 -2 -52 -1 -41
2 25 6 44 23 26 23 -7 0 -10 4 -6 9 3 5 0 13 -6 17 -8 4 -9 3 -5 -4z m186
-182 c0 -5 -2 -10 -4 -10 -3 0 -8 5 -11 10 -3 6 -1 10 4 10 6 0 11 -4 11 -10z
m60 -10 c0 -5 -2 -10 -4 -10 -3 0 -8 5 -11 10 -3 6 -1 10 4 10 6 0 11 -4 11
-10z m23 -20 c-3 -11 -7 -20 -9 -20 -2 0 -4 9 -4 20 0 11 4 20 9 20 5 0 7 -9
4 -20z m137 -31 c0 -4 -16 -2 -35 3 -19 6 -32 15 -30 19 6 8 65 -12 65 -22z
m-60 -19 c0 -11 -4 -20 -9 -20 -5 0 -7 9 -4 20 3 11 7 20 9 20 2 0 4 -9 4 -20z
m291 2 c24 -16 29 -42 8 -42 -4 0 -6 7 -3 15 4 8 1 15 -5 15 -6 0 -11 -4 -11
-10 0 -5 -6 -7 -14 -4 -8 3 -14 14 -13 25 2 23 5 23 38 1z m-61 -52 c8 -5 11
-10 5 -10 -5 0 -17 5 -25 10 -8 5 -10 10 -5 10 6 0 17 -5 25 -10z m460 -24 c0
-2 -7 -7 -16 -10 -8 -3 -12 -2 -9 4 6 10 25 14 25 6z m-1560 -248 c0 -21 -14
-35 -32 -35 -15 0 -15 2 -1 24 17 25 33 30 33 11z m303 -583 c4 -8 2 -17 -3
-20 -6 -4 -10 3 -10 14 0 25 6 27 13 6z m847 5 c0 -13 -11 -13 -30 0 -12 8
-11 10 8 10 12 0 22 -4 22 -10z m-243 -96 c-3 -3 -12 -4 -19 -1 -8 3 -5 6 6 6
11 1 17 -2 13 -5z m-121 -82 c1 -7 0 -8 -3 -2 -2 5 -9 8 -14 4 -5 -3 -9 0 -9
6 0 15 23 7 26 -8z m-94 -344 c-7 -7 -12 -8 -12 -2 0 14 12 26 19 19 2 -3 -1
-11 -7 -17z m-507 -158 c3 -6 -1 -7 -9 -4 -18 7 -21 14 -7 14 6 0 13 -4 16
-10z m402 -72 c-3 -8 -6 -5 -6 6 -1 11 2 17 5 13 3 -3 4 -12 1 -19z m-17 -38
c0 -5 -7 -10 -16 -10 -8 0 -12 5 -9 10 3 6 10 10 16 10 5 0 9 -4 9 -10z m-310
-108 c0 -5 -7 -9 -15 -9 -8 0 -12 4 -9 9 3 4 9 8 15 8 5 0 9 -4 9 -8z m-6 -31
c4 -5 -1 -8 -9 -7 -21 3 -31 16 -12 16 9 0 18 -4 21 -9z"/>
<path d="M1118 11033 c6 -2 18 -2 25 0 6 3 1 5 -13 5 -14 0 -19 -2 -12 -5z"/>
<path d="M1200 10999 c0 -5 5 -7 10 -4 6 3 10 8 10 11 0 2 -4 4 -10 4 -5 0
-10 -5 -10 -11z"/>
<path d="M1230 11000 c0 -5 5 -10 10 -10 6 0 10 5 10 10 0 6 -4 10 -10 10 -5
0 -10 -4 -10 -10z"/>
<path d="M1220 10970 c0 -5 5 -10 10 -10 6 0 10 5 10 10 0 6 -4 10 -10 10 -5
0 -10 -4 -10 -10z"/>
<path d="M8874 10965 c-4 -8 -4 -22 0 -30 10 -28 -43 -18 -56 10 -17 37 -30
30 -26 -12 2 -30 7 -38 23 -38 16 0 19 -6 17 -25 -5 -34 -10 -37 -27 -14 -8
10 -15 15 -15 10 0 -5 -8 -1 -19 8 -10 9 -35 19 -54 23 -32 5 -37 3 -42 -20
-4 -14 -4 -31 0 -36 4 -7 -5 -11 -24 -11 -16 0 -32 -3 -34 -7 -9 -15 12 -53
29 -53 12 0 14 -5 9 -17 -12 -27 -11 -66 1 -70 6 -2 27 8 48 22 20 14 45 25
54 25 9 1 41 23 70 50 43 40 52 55 52 83 0 30 4 35 30 41 35 7 37 14 9 50 -23
29 -37 33 -45 11z m-105 -154 c11 -7 11 -13 1 -32 -18 -34 -19 -35 -35 -13
-30 40 -7 71 34 45z"/>
<path d="M1250 10959 c0 -5 5 -7 10 -4 6 3 10 8 10 11 0 2 -4 4 -10 4 -5 0
-10 -5 -10 -11z"/>
<path d="M1280 10960 c0 -5 5 -10 11 -10 5 0 7 5 4 10 -3 6 -8 10 -11 10 -2 0
-4 -4 -4 -10z"/>
<path d="M1475 10960 c3 -5 8 -10 11 -10 2 0 4 5 4 10 0 6 -5 10 -11 10 -5 0
-7 -4 -4 -10z"/>
<path d="M1610 10959 c0 -5 5 -7 10 -4 6 3 10 8 10 11 0 2 -4 4 -10 4 -5 0
-10 -5 -10 -11z"/>
<path d="M1500 10950 c0 -5 5 -10 11 -10 5 0 7 5 4 10 -3 6 -8 10 -11 10 -2 0
-4 -4 -4 -10z"/>
<path d="M1335 10940 c3 -5 8 -10 11 -10 2 0 4 5 4 10 0 6 -5 10 -11 10 -5 0
-7 -4 -4 -10z"/>
<path d="M1430 10939 c0 -5 5 -7 10 -4 6 3 10 8 10 11 0 2 -4 4 -10 4 -5 0
-10 -5 -10 -11z"/>
<path d="M10421 10934 c0 -11 3 -14 6 -6 3 7 2 16 -1 19 -3 4 -6 -2 -5 -13z"/>
<path d="M1240 10930 c0 -5 5 -10 10 -10 6 0 10 5 10 10 0 6 -4 10 -10 10 -5
0 -10 -4 -10 -10z"/>
<path d="M1270 10930 c0 -5 5 -10 11 -10 5 0 7 5 4 10 -3 6 -8 10 -11 10 -2 0
-4 -4 -4 -10z"/>
<path d="M1460 10928 c0 -6 3 -8 7 -5 3 4 12 2 20 -4 8 -7 13 -8 13 -1 0 5 -7
13 -16 16 -22 8 -24 8 -24 -6z"/>
<path d="M1395 10920 c3 -5 8 -10 11 -10 2 0 4 5 4 10 0 6 -5 10 -11 10 -5 0
-7 -4 -4 -10z"/>
<path d="M1555 10920 c3 -5 8 -10 11 -10 2 0 4 5 4 10 0 6 -5 10 -11 10 -5 0
-7 -4 -4 -10z"/>
<path d="M1510 10910 c0 -5 5 -10 10 -10 6 0 10 5 10 10 0 6 -4 10 -10 10 -5
0 -10 -4 -10 -10z"/>
<path d="M1580 10910 c0 -5 5 -10 11 -10 5 0 7 5 4 10 -3 6 -8 10 -11 10 -2 0
-4 -4 -4 -10z"/>
<path d="M1755 10910 c3 -5 8 -10 11 -10 2 0 4 5 4 10 0 6 -5 10 -11 10 -5 0
-7 -4 -4 -10z"/>
<path d="M1900 10909 c0 -5 5 -7 10 -4 6 3 10 8 10 11 0 2 -4 4 -10 4 -5 0
-10 -5 -10 -11z"/>
<path d="M1686 10886 c10 -8 21 -12 24 -10 5 6 -21 24 -34 24 -6 0 -1 -6 10
-14z"/>
<path d="M8930 10879 c0 -11 5 -30 12 -42 6 -12 12 -44 12 -72 1 -39 5 -50 19
-53 15 -3 17 2 11 52 -4 35 -3 56 3 56 6 0 27 -21 48 -47 l38 -48 -6 45 c-4
34 -13 51 -36 70 -17 14 -31 33 -31 43 0 13 -8 17 -35 17 -29 0 -35 -4 -35
-21z"/>
<path d="M1566 10874 c-5 -13 -9 -14 -21 -4 -9 7 -15 8 -15 2 0 -5 6 -12 13
-15 6 -2 16 -6 21 -8 5 -2 11 6 12 19 4 26 -1 29 -10 6z"/>
<path d="M1840 10879 c0 -6 -9 -8 -22 -3 -21 6 -21 6 -5 -11 10 -10 19 -16 20
-14 2 2 9 12 16 22 9 11 10 17 2 17 -6 0 -11 -5 -11 -11z"/>
<path d="M1888 10882 c8 -5 10 -16 5 -28 -7 -18 -6 -18 12 -1 15 16 16 20 4
28 -8 5 -18 9 -24 9 -5 0 -4 -4 3 -8z"/>
<path d="M1 10854 c-1 -20 7 -38 24 -54 26 -25 35 -18 11 9 -7 9 -18 30 -24
46 l-10 30 -1 -31z"/>
<path d="M1590 10870 c0 -5 5 -10 10 -10 6 0 10 5 10 10 0 6 -4 10 -10 10 -5
0 -10 -4 -10 -10z"/>
<path d="M2235 10870 c3 -5 8 -10 11 -10 2 0 4 5 4 10 0 6 -5 10 -11 10 -5 0
-7 -4 -4 -10z"/>
<path d="M1850 10839 c0 -6 -10 -8 -22 -5 -13 3 -17 3 -10 0 19 -9 14 -26 -7
-19 -12 4 -21 0 -25 -11 -8 -21 2 -33 13 -16 4 8 15 10 27 6 10 -4 16 -4 12 1
-4 4 -1 14 7 21 17 17 48 7 41 -13 -3 -8 -6 -17 -6 -19 0 -2 -4 -4 -10 -4 -5
0 -7 7 -4 15 4 8 2 15 -4 15 -14 0 -25 -34 -13 -38 5 -2 7 -10 4 -18 -3 -8 0
-14 5 -14 6 0 14 9 17 20 3 11 11 20 16 20 6 0 7 5 4 10 -9 15 2 12 30 -6 15
-10 25 -12 25 -5 0 6 5 11 11 11 6 0 8 -8 4 -19 -4 -12 0 -21 11 -25 19 -7 42
9 30 21 -4 4 -11 1 -16 -7 -6 -8 -10 -10 -10 -5 0 6 4 16 9 24 7 11 13 10 32
-8 18 -17 19 -21 6 -21 -18 0 -32 -18 -22 -28 3 -3 11 0 16 8 8 11 12 12 16 3
2 -7 9 -13 15 -13 7 0 7 4 0 13 -7 8 -7 18 -1 27 8 13 10 13 19 0 9 -13 11
-13 19 0 8 12 13 11 28 -7 16 -18 21 -19 37 -7 11 7 20 23 21 33 1 11 10 29
20 41 10 11 15 20 10 20 -4 0 -16 -10 -26 -21 -22 -26 -83 -34 -100 -13 -6 8
-17 14 -23 14 -6 0 -4 -4 4 -10 8 -5 11 -12 7 -16 -4 -4 -23 8 -42 26 -19 19
-35 30 -35 26 0 -5 10 -17 22 -27 11 -11 18 -22 14 -26 -3 -4 -22 9 -41 27
-19 19 -35 29 -35 23 0 -6 6 -13 13 -16 6 -2 9 -8 5 -12 -4 -4 -19 0 -33 9
-14 9 -25 12 -25 6 0 -15 -16 -12 -34 5 -17 18 -26 19 -26 4z m80 -30 c0 -5 5
-7 10 -4 6 3 10 1 10 -4 0 -13 -3 -13 -24 -5 -18 7 -22 24 -6 24 6 0 10 -5 10
-11z m60 -9 c0 -5 -4 -10 -10 -10 -5 0 -10 5 -10 10 0 6 5 10 10 10 6 0 10 -4
10 -10z m60 -20 c0 -5 -4 -10 -10 -10 -5 0 -10 5 -10 10 0 6 5 10 10 10 6 0
10 -4 10 -10z m40 0 c0 -5 -4 -10 -10 -10 -5 0 -10 5 -10 10 0 6 5 10 10 10 6
0 10 -4 10 -10z m43 -2 c4 -10 8 -9 16 2 5 8 13 11 17 8 3 -4 -1 -14 -10 -23
-14 -15 -18 -15 -31 -1 -8 8 -15 17 -15 20 0 11 18 6 23 -6z"/>
<path d="M2030 10840 c0 -5 5 -10 11 -10 5 0 7 5 4 10 -3 6 -8 10 -11 10 -2 0
-4 -4 -4 -10z"/>
<path d="M2342 10820 c7 -11 16 -20 20 -20 5 0 3 9 -4 20 -7 11 -16 20 -20 20
-5 0 -3 -9 4 -20z"/>
<path d="M2440 10834 c0 -13 18 -39 24 -34 2 3 -2 14 -10 24 -8 11 -14 16 -14
10z"/>
<path d="M9291 10804 c-17 -14 -31 -32 -31 -40 0 -8 -6 -27 -14 -42 -8 -15
-16 -49 -18 -74 -4 -39 -2 -47 14 -51 10 -3 16 -1 13 3 -5 8 8 19 73 68 21 16
22 22 16 90 -4 39 -10 72 -15 72 -4 0 -21 -12 -38 -26z"/>
<path d="M1598 10803 c7 -3 16 -2 19 1 4 3 -2 6 -13 5 -11 0 -14 -3 -6 -6z"/>
<path d="M10427 10793 c-4 -3 -7 -16 -7 -28 0 -15 -16 -36 -45 -60 -25 -20
-57 -60 -71 -88 -23 -44 -26 -60 -22 -117 3 -39 13 -81 26 -105 l21 -40 1 58
c0 41 9 78 28 125 34 80 46 120 43 148 -1 13 8 27 23 38 26 17 33 40 18 64 -5
7 -11 9 -15 5z"/>
<path d="M2540 10760 c0 -5 5 -10 11 -10 5 0 7 5 4 10 -3 6 -8 10 -11 10 -2 0
-4 -4 -4 -10z"/>
<path d="M2240 10740 c0 -5 5 -10 11 -10 5 0 7 5 4 10 -3 6 -8 10 -11 10 -2 0
-4 -4 -4 -10z"/>
<path d="M2344 10736 c4 -12 1 -23 -6 -28 -7 -4 -8 -8 -3 -8 6 0 17 5 25 10
13 8 12 12 -4 27 -18 17 -19 17 -12 -1z"/>
<path d="M2701 10724 c0 -11 3 -14 6 -6 3 7 2 16 -1 19 -3 4 -6 -2 -5 -13z"/>
<path d="M8810 10721 c-20 -10 -34 -23 -32 -32 3 -11 1 -11 -9 -2 -13 13 -58
-2 -72 -24 -5 -8 -14 -10 -20 -7 -7 4 -8 3 -4 -2 5 -5 13 -10 18 -10 5 -1 12
-2 16 -3 3 0 -2 -9 -11 -20 -16 -18 -16 -19 8 -25 13 -3 31 -8 38 -11 9 -4 19
4 26 19 8 18 17 24 29 20 11 -4 14 -3 6 3 -8 6 -8 14 2 33 8 14 15 21 15 15 0
-5 5 -3 10 5 6 9 10 11 10 3 0 -7 7 -10 16 -6 13 5 13 7 2 14 -10 7 -9 9 3 9
9 0 19 6 22 14 12 31 -20 34 -73 7z"/>
<path d="M6641 10723 c-19 -2 -44 -11 -55 -19 -11 -8 -30 -14 -41 -14 -24 0
-208 -102 -251 -139 -30 -27 -175 -112 -569 -336 -104 -59 -253 -145 -330
-190 -77 -46 -162 -95 -190 -111 -54 -29 -181 -103 -450 -259 -197 -115 -479
-278 -895 -517 -162 -94 -317 -184 -345 -200 -27 -17 -185 -108 -350 -203
-165 -95 -344 -198 -397 -229 -54 -31 -142 -81 -195 -112 -247 -143 -341 -201
-379 -236 -42 -39 -194 -255 -194 -276 0 -7 -4 -12 -10 -12 -5 0 -10 -7 -10
-15 0 -9 -7 -27 -16 -41 -11 -16 -15 -36 -11 -58 3 -19 3 -37 -1 -40 -3 -4 -7
-14 -8 -24 -2 -9 -7 -37 -13 -62 -5 -25 -6 -47 -1 -50 4 -3 7 -54 6 -115 -2
-99 -6 -115 -30 -160 -15 -27 -46 -70 -69 -95 -23 -24 11 7 76 69 l119 114 22
-54 c12 -30 36 -75 53 -99 16 -25 43 -70 58 -100 15 -30 53 -93 84 -140 31
-47 77 -127 104 -179 26 -52 53 -102 61 -110 7 -9 25 -40 40 -70 15 -29 50
-82 78 -117 27 -35 46 -64 41 -64 -4 0 -3 -4 2 -8 12 -8 105 -168 135 -232 11
-25 43 -81 70 -125 27 -44 49 -87 50 -95 0 -21 37 -90 63 -117 33 -37 6 -26
-38 14 -129 118 -365 347 -858 831 -176 172 -322 310 -327 307 -8 -5 -20 -63
-21 -99 0 -21 48 -76 66 -76 7 0 39 -30 71 -67 33 -37 74 -81 92 -98 19 -16
87 -81 152 -144 66 -62 132 -123 147 -135 39 -29 163 -154 163 -164 0 -10 36
-47 119 -122 116 -104 131 -119 131 -130 0 -5 6 -10 13 -10 7 0 22 -10 34 -22
37 -42 91 -87 97 -81 3 4 6 1 6 -5 0 -16 14 -32 185 -209 214 -222 294 -303
299 -303 10 0 56 -48 56 -59 0 -6 5 -11 11 -11 5 0 7 -4 4 -10 -3 -5 1 -10 9
-10 9 0 13 -6 10 -15 -6 -14 20 -58 57 -99 10 -10 15 -25 12 -33 -3 -8 4 -21
16 -29 11 -8 21 -24 21 -34 0 -10 6 -25 13 -32 27 -30 57 -78 57 -93 0 -8 4
-15 10 -15 16 0 52 -78 39 -86 -7 -4 -1 -17 16 -34 15 -16 25 -31 23 -34 -1
-3 5 -14 14 -26 10 -11 15 -20 11 -20 -4 0 7 -12 24 -27 17 -16 34 -39 38 -52
4 -14 21 -47 37 -75 16 -28 34 -63 41 -78 6 -16 14 -28 18 -28 4 0 12 -15 19
-32 32 -82 60 -135 84 -155 14 -13 26 -28 26 -34 0 -5 5 -7 12 -3 7 4 8 3 4
-4 -8 -14 30 -92 45 -92 6 0 8 -4 4 -9 -3 -5 -1 -12 4 -15 5 -4 15 -23 22 -44
6 -20 20 -49 30 -64 11 -14 19 -33 19 -40 0 -8 11 -28 25 -44 14 -16 25 -34
25 -40 0 -17 36 -55 44 -46 4 4 7 3 5 -3 -3 -12 10 -39 55 -122 19 -34 32 -63
30 -66 -3 -2 2 -10 11 -17 8 -7 15 -16 15 -21 0 -5 8 -17 18 -27 38 -41 52
-63 52 -82 0 -11 5 -20 10 -20 6 0 18 -16 27 -35 9 -19 21 -35 25 -35 5 0 7
-4 3 -9 -3 -6 3 -18 14 -28 10 -10 28 -44 40 -76 11 -33 29 -67 40 -76 12 -10
18 -20 15 -23 -2 -3 11 -24 31 -48 19 -23 35 -48 35 -56 0 -8 5 -14 10 -14 6
0 10 -6 10 -13 0 -8 14 -33 30 -55 17 -23 27 -42 24 -42 -4 0 0 -8 9 -18 10
-10 14 -22 11 -25 -4 -4 1 -9 10 -13 9 -3 16 -14 16 -23 0 -10 8 -26 18 -37 9
-11 18 -24 19 -29 5 -32 10 -41 26 -53 9 -7 17 -21 17 -31 0 -10 7 -24 15 -31
8 -7 15 -21 15 -31 0 -10 4 -21 10 -24 7 -4 45 -77 55 -105 10 -30 27 -59 43
-76 12 -12 18 -25 15 -28 -4 -3 1 -6 10 -6 10 0 17 -7 17 -15 0 -8 5 -15 11
-15 5 0 8 -4 4 -9 -3 -5 4 -12 15 -16 11 -3 20 -13 20 -21 0 -8 5 -14 12 -14
6 0 8 -3 5 -6 -3 -4 0 -16 8 -28 8 -11 15 -28 15 -38 0 -10 5 -18 10 -18 6 0
10 -9 10 -20 0 -11 4 -20 9 -20 10 0 64 -78 72 -105 3 -11 11 -19 17 -18 7 2
14 -9 18 -25 9 -40 36 -92 59 -111 11 -9 34 -43 51 -76 17 -33 40 -65 51 -70
11 -6 19 -18 17 -27 -1 -10 3 -16 9 -15 8 1 11 -9 9 -26 -2 -18 1 -26 8 -22 5
3 13 -2 17 -12 10 -27 94 -103 114 -103 10 0 20 -4 23 -9 3 -5 23 -7 43 -4 21
3 55 6 75 7 21 2 49 11 64 21 18 11 24 13 19 4 -3 -8 -1 -7 7 2 7 9 18 14 25
12 6 -2 23 3 37 12 14 9 30 14 35 10 6 -3 22 2 36 11 14 9 32 14 40 10 8 -3
23 3 32 13 10 10 28 22 41 25 12 4 27 16 32 27 6 10 17 19 25 19 8 0 15 8 15
18 0 14 2 15 10 2 8 -13 10 -12 10 4 0 11 3 17 6 13 4 -3 25 4 48 15 22 12 44
21 49 20 4 -1 7 2 7 7 0 5 21 17 48 27 26 10 54 23 63 31 8 7 21 13 27 13 7 0
12 4 12 9 0 5 12 16 28 24 91 47 118 63 124 74 5 6 16 9 26 6 13 -3 22 4 30
22 7 14 16 24 21 20 5 -3 12 -1 16 5 9 15 35 12 35 -5 0 -8 11 -17 25 -21 14
-3 25 -9 25 -13 0 -4 9 -7 20 -8 11 -1 27 -9 36 -17 8 -9 21 -16 29 -16 7 0
15 -7 19 -15 6 -17 46 -21 46 -4 0 5 5 7 11 3 8 -5 8 -8 0 -14 -13 -7 -4 -40
10 -40 5 0 9 -6 9 -14 0 -8 10 -23 23 -33 13 -10 26 -26 29 -35 14 -36 101
-68 124 -45 4 4 -59 74 -140 157 -80 83 -146 157 -146 165 0 8 47 37 108 67
116 58 358 200 546 322 65 43 180 109 255 147 75 38 161 87 191 108 30 21 111
69 180 107 116 63 136 79 275 215 138 135 160 152 280 219 72 40 146 83 165
95 40 26 150 85 159 85 3 0 -10 -13 -29 -29 -19 -16 -32 -32 -28 -36 4 -4 14
0 23 9 14 14 35 20 57 17 10 -1 218 106 255 132 18 12 35 30 38 40 4 9 13 17
21 17 8 0 13 4 9 9 -3 5 20 15 50 21 30 6 55 16 55 21 0 5 9 9 20 9 11 0 20 5
20 11 0 5 16 17 35 25 20 8 38 21 42 29 3 8 13 15 22 15 9 0 25 7 35 15 11 8
28 15 38 15 10 0 18 4 18 10 0 5 12 13 28 16 15 4 42 20 60 36 18 15 39 28 47
28 9 0 12 6 9 15 -5 13 -2 14 19 6 19 -8 28 -6 37 5 7 7 20 14 30 14 10 0 21
7 24 16 4 9 9 14 13 10 3 -3 13 4 21 15 8 12 29 27 46 35 17 7 25 13 17 14 -8
0 -3 9 13 21 14 11 26 27 26 35 0 11 6 13 19 9 14 -4 21 0 26 15 3 11 13 20
21 20 8 0 19 10 25 23 6 12 50 45 98 74 188 111 254 179 280 290 13 55 8 126
-15 180 -7 18 -55 105 -106 194 -51 89 -106 185 -121 213 -16 28 -50 87 -77
131 -47 78 -122 206 -395 680 -73 127 -155 268 -182 315 -69 116 -167 286
-350 605 -85 149 -159 275 -163 280 -8 9 -230 393 -310 535 -20 36 -94 164
-165 285 -131 225 -273 471 -455 790 -57 99 -119 214 -138 255 -19 41 -43 87
-54 103 -11 15 -17 27 -13 27 3 0 -1 10 -9 22 -9 12 -16 32 -16 43 0 11 -9 26
-19 32 -16 10 -19 20 -14 46 3 22 0 39 -9 48 -15 15 -32 50 -30 61 1 4 -5 19
-13 35 -8 15 -15 24 -15 18 0 -5 -8 -1 -16 10 -11 14 -18 16 -21 7 -8 -22 -23
-2 -17 23 5 20 1 27 -20 37 -17 7 -43 40 -70 87 -24 42 -77 133 -120 202 -42
70 -76 132 -76 139 0 6 -25 54 -55 106 -57 96 -82 126 -45 54 11 -22 19 -40
16 -40 -4 0 -39 57 -193 320 -141 240 -170 278 -240 320 -49 30 -64 34 -137
36 -44 1 -96 0 -115 -3z m-415 -3249 c90 -43 106 -175 29 -243 -96 -84 -249
-19 -249 107 0 117 113 186 220 136z m-263 -342 c115 -191 638 -1091 678
-1167 63 -121 82 -196 77 -310 -4 -101 -29 -167 -90 -243 -57 -72 -186 -169
-293 -222 -119 -59 -283 -107 -302 -87 -6 6 -34 50 -62 97 -56 96 -58 91 43
111 68 13 221 88 296 145 28 21 63 56 78 78 24 36 27 48 27 125 -1 104 3 97
-260 556 -97 171 -188 332 -202 358 -16 33 -29 47 -38 43 -8 -3 -139 -77 -291
-166 -151 -88 -279 -160 -283 -160 -4 0 -31 42 -61 93 -29 50 -60 102 -67 114
-14 20 -6 26 254 177 148 85 277 162 287 169 17 13 13 23 -78 178 l-96 164
113 5 c61 3 139 5 172 5 l59 0 39 -63z m804 -514 c170 -293 324 -567 343 -608
31 -68 34 -84 34 -170 1 -88 -2 -100 -32 -162 -23 -48 -52 -85 -101 -130 -95
-87 -278 -194 -298 -174 -4 4 14 28 40 54 70 72 97 138 97 243 0 91 -17 163
-55 239 -13 25 -179 312 -369 639 -190 326 -346 595 -346 597 0 2 85 4 189 4
l189 0 309 -532z m2333 -2992 c0 -2 -7 -7 -16 -10 -8 -3 -12 -2 -9 4 6 10 25
14 25 6z m-2180 -1733 c0 -8 -9 0 -50 45 l-45 47 48 -45 c26 -24 47 -45 47
-47z"/>
<path d="M150 10681 c0 -6 7 -11 16 -11 8 0 13 -4 9 -9 -3 -6 4 -15 15 -21 25
-13 26 1 3 22 -28 23 -43 30 -43 19z"/>
<path d="M9370 10658 c-19 -12 -51 -30 -70 -39 -28 -14 -30 -18 -14 -19 12 0
33 9 47 20 14 11 29 20 35 20 5 0 17 9 27 20 23 25 18 25 -25 -2z"/>
<path d="M9003 10655 c0 -8 7 -15 14 -15 8 0 11 -5 8 -10 -4 -6 -12 -7 -18 -3
-7 3 -3 -4 8 -16 17 -19 21 -20 23 -7 3 14 6 14 25 1 14 -10 24 -11 33 -4 20
17 80 -23 67 -45 -3 -5 -1 -6 5 -2 7 4 9 18 6 32 -4 16 -2 24 7 24 10 1 9 5
-3 14 -10 7 -18 18 -18 25 0 11 -14 15 -35 11 -17 -3 -38 -2 -81 4 -32 5 -41
3 -41 -9z"/>
<path d="M10410 10626 c0 -8 5 -18 10 -21 6 -4 10 -56 10 -122 0 -64 2 -114 4
-112 3 2 8 47 11 99 4 52 9 97 11 99 5 5 -24 59 -36 66 -5 3 -10 -1 -10 -9z"/>
<path d="M9230 10553 c5 -2 8 -9 4 -14 -3 -5 0 -9 6 -9 15 0 7 23 -8 26 -7 1
-8 0 -2 -3z"/>
<path d="M8713 10495 c0 -8 4 -12 9 -9 5 3 6 10 3 15 -9 13 -12 11 -12 -6z"/>
<path d="M9101 10486 c-6 -7 -45 -19 -87 -27 -71 -12 -74 -14 -55 -29 15 -11
18 -19 11 -30 -19 -29 -11 -48 24 -61 19 -7 34 -17 33 -22 -1 -5 3 -11 8 -13
6 -2 11 6 12 18 3 29 24 69 34 63 4 -3 6 9 5 26 -2 22 4 36 21 49 23 18 31 40
14 40 -5 0 -14 -6 -20 -14z"/>
<path d="M8895 10350 c-3 -5 -1 -10 4 -10 6 0 11 5 11 10 0 6 -2 10 -4 10 -3
0 -8 -4 -11 -10z"/>
<path d="M3045 10340 c45 -11 105 -11 105 0 0 6 -28 10 -67 9 -53 -1 -61 -3
-38 -9z"/>
<path d="M8859 10261 c-47 -50 -79 -91 -79 -102 0 -4 8 -6 18 -5 9 0 18 -6 18
-14 1 -8 2 -22 3 -31 2 -25 31 -32 52 -13 17 15 19 15 19 1 0 -9 -9 -19 -21
-22 -28 -9 -16 -19 26 -22 22 -1 38 4 47 15 11 15 11 15 -2 5 -14 -10 -15 -7
-11 25 3 20 6 29 9 20 2 -10 7 -18 12 -18 18 0 31 31 34 82 1 30 6 59 9 65 10
16 -40 63 -66 63 -13 -1 -41 -21 -68 -49z m44 -81 c8 -7 -18 -40 -32 -40 -16
0 -33 30 -27 46 6 15 40 12 59 -6z"/>
<path d="M8757 10281 c-4 -17 -3 -21 5 -13 5 5 8 16 6 23 -3 8 -7 3 -11 -10z"/>
<path d="M7206 10277 c3 -10 9 -15 12 -12 3 3 0 11 -7 18 -10 9 -11 8 -5 -6z"/>
<path d="M8725 10280 c4 -6 11 -8 16 -5 14 9 11 15 -7 15 -8 0 -12 -5 -9 -10z"/>
<path d="M7230 10230 c6 -11 13 -20 16 -20 2 0 0 9 -6 20 -6 11 -13 20 -16 20
-2 0 0 -9 6 -20z"/>
<path d="M3135 10185 c-5 -2 -64 -9 -130 -14 -66 -6 -145 -17 -175 -25 -80
-21 -141 -28 -265 -32 -132 -3 -190 -11 -230 -29 -16 -8 -39 -17 -50 -20 -20
-6 -20 -7 -1 -21 11 -8 27 -14 36 -14 9 0 21 -5 28 -12 10 -10 155 -22 202
-17 8 1 125 1 260 1 202 -1 263 2 349 18 118 22 140 36 148 97 7 55 -19 73
-102 72 -33 0 -64 -2 -70 -4z"/>
<path d="M10425 10077 c-25 -29 -37 -77 -29 -119 8 -49 11 -45 23 37 8 49 9
40 4 -51 -4 -100 -3 -115 16 -152 12 -23 24 -42 27 -42 10 0 34 69 34 97 0 15
6 40 14 54 11 23 10 33 -9 88 -21 57 -49 102 -64 101 -3 -1 -11 -6 -16 -13z"/>
<path d="M10304 10002 c-35 -46 -43 -67 -49 -138 l-7 -69 21 25 c31 38 82 211
62 209 -3 0 -15 -12 -27 -27z"/>
<path d="M2178 9913 c6 -2 18 -2 25 0 6 3 1 5 -13 5 -14 0 -19 -2 -12 -5z"/>
<path d="M810 9830 c-9 -6 -10 -10 -3 -10 6 0 15 5 18 10 8 12 4 12 -15 0z"/>
<path d="M1448 9753 c-14 -4 -15 -8 -5 -24 6 -10 15 -19 20 -19 4 0 6 4 2 9
-3 5 3 12 12 14 17 4 17 5 0 6 -10 0 -15 6 -12 11 3 6 5 9 3 9 -2 -1 -11 -3
-20 -6z"/>
<path d="M1425 9710 c3 -5 8 -10 11 -10 2 0 4 5 4 10 0 6 -5 10 -11 10 -5 0
-7 -4 -4 -10z"/>
<path d="M740 9649 c0 -5 5 -7 10 -4 6 3 10 8 10 11 0 2 -4 4 -10 4 -5 0 -10
-5 -10 -11z"/>
<path d="M10249 9519 c-18 -25 -22 -44 -21 -90 1 -32 9 -73 17 -91 8 -18 13
-25 11 -16 -15 55 -18 91 -7 84 9 -6 10 5 5 43 -5 39 -3 57 10 76 24 36 12 31
-15 -6z"/>
<path d="M1413 9454 c-3 -8 -3 -18 1 -21 3 -4 6 2 6 13 0 14 2 16 9 5 5 -8 11
-9 15 -3 3 5 -1 13 -9 16 -9 3 -18 -1 -22 -10z"/>
<path d="M1466 9442 c-2 -4 4 -8 15 -8 10 0 19 4 19 8 0 4 -6 8 -14 8 -8 0
-17 -4 -20 -8z"/>
<path d="M1306 9414 c-8 -22 -4 -25 11 -9 7 8 9 16 4 19 -5 3 -12 -1 -15 -10z"/>
<path d="M10296 9335 c-10 -7 -16 -18 -15 -24 2 -5 18 1 34 15 32 25 14 34
-19 9z"/>
<path d="M1321 9337 c2 -1 13 -9 23 -17 15 -11 18 -12 12 -1 -8 13 4 11 52 -6
7 -3 10 0 7 8 -3 9 -24 15 -52 17 -26 1 -45 1 -42 -1z"/>
<path d="M1295 9300 c-4 -6 -11 -7 -17 -4 -7 4 -8 2 -4 -5 6 -9 12 -9 24 1 10
7 19 14 21 15 2 2 -1 3 -7 3 -6 0 -14 -5 -17 -10z"/>
<path d="M1190 9292 c0 -5 6 -15 14 -21 12 -10 14 -9 12 5 -3 19 -26 33 -26
16z"/>
<path d="M1500 9285 c5 -7 6 -16 2 -21 -4 -5 -3 -5 2 -1 15 12 15 34 0 34 -9
0 -11 -4 -4 -12z"/>
<path d="M10355 9264 c14 -20 25 -42 25 -48 0 -6 9 -22 20 -36 l20 -25 0 31
c0 21 -11 44 -36 72 -44 52 -62 55 -29 6z"/>
<path d="M1323 9274 c4 -4 -1 -13 -11 -21 -16 -12 -16 -13 1 -7 11 4 17 1 17
-9 0 -8 6 -19 13 -25 10 -8 13 -6 14 9 1 11 -2 17 -7 14 -4 -3 -10 2 -13 9 -3
8 -1 16 6 19 6 2 2 7 -8 11 -11 4 -16 4 -12 0z"/>
<path d="M10246 9261 c-18 -20 -51 -129 -42 -138 9 -9 24 7 52 54 45 78 38
137 -10 84z"/>
<path d="M1457 9249 c7 -7 15 -10 18 -7 3 3 -2 9 -12 12 -14 6 -15 5 -6 -5z"/>
<path d="M632 9233 c-5 -10 -7 -24 -4 -32 3 -9 0 -11 -8 -6 -9 5 -11 4 -6 -3
4 -7 9 -12 11 -12 3 0 35 60 35 67 0 11 -21 0 -28 -14z"/>
<path d="M1289 9213 c-13 -16 -12 -17 4 -4 9 7 17 15 17 17 0 8 -8 3 -21 -13z"/>
<path d="M1195 9190 c4 -6 11 -8 16 -5 14 9 11 15 -7 15 -8 0 -12 -5 -9 -10z"/>
<path d="M1435 9190 c3 -5 8 -10 11 -10 2 0 4 5 4 10 0 6 -5 10 -11 10 -5 0
-7 -4 -4 -10z"/>
<path d="M611 9151 c-12 -21 -5 -32 14 -25 9 4 12 -1 8 -14 -2 -11 0 -22 5
-26 5 -3 12 8 14 24 4 25 1 30 -16 31 -12 0 -15 3 -8 6 14 6 16 23 2 23 -5 0
-14 -8 -19 -19z"/>
<path d="M10216 8978 c-30 -30 -37 -44 -32 -63 4 -15 -2 -38 -15 -62 l-21 -38
24 28 c13 15 31 27 40 27 11 0 22 17 33 56 25 86 18 98 -29 52z"/>
<path d="M670 8980 c0 -5 5 -10 11 -10 5 0 7 5 4 10 -3 6 -8 10 -11 10 -2 0
-4 -4 -4 -10z"/>
<path d="M10165 8776 c-9 -14 -25 -28 -36 -31 -19 -7 -27 -35 -9 -35 6 0 10
-7 10 -15 0 -21 26 -19 50 5 21 21 28 84 10 95 -5 3 -16 -6 -25 -19z"/>
<path d="M0 2673 l0 -2673 3483 1 3482 0 -185 55 c-583 174 -1119 371 -1585
584 -33 15 -82 37 -110 50 -135 60 -666 331 -737 376 -21 13 -40 24 -43 24 -3
0 -49 26 -103 59 -53 32 -135 80 -182 106 -162 91 -627 394 -695 453 -11 9
-41 31 -68 47 -26 17 -87 59 -135 95 -48 36 -137 102 -197 146 -61 45 -128
100 -150 123 -22 23 -56 51 -75 61 -41 22 -267 207 -390 320 -47 43 -100 90
-117 104 -18 15 -42 45 -54 66 -12 21 -30 41 -41 43 -16 5 -17 3 -7 -11 7 -9
-5 1 -27 23 -22 22 -50 57 -62 78 -13 20 -27 37 -31 37 -4 0 -29 19 -54 43
-26 23 -65 55 -87 71 -22 17 -40 33 -40 38 0 6 -63 77 -110 123 -6 6 -29 29
-52 53 -23 23 -47 42 -53 42 -7 0 -25 17 -41 38 -15 20 -36 43 -47 51 -10 7
-16 19 -13 26 2 7 -47 66 -112 134 -64 66 -130 135 -145 153 -15 18 -25 27
-21 19 4 -9 3 -12 -3 -8 -6 4 -14 19 -17 33 -7 26 -54 89 -140 186 -80 90
-119 140 -168 212 -19 27 -44 56 -57 65 -24 15 -24 15 -12 -9 l12 -25 -18 22
c-83 98 -107 136 -112 173 -1 7 -31 47 -54 71 -9 11 -17 21 -17 23 0 10 -67
113 -88 136 -13 14 -35 45 -49 70 -15 25 -59 90 -98 145 -40 55 -82 120 -95
145 -12 25 -35 59 -50 75 -15 17 -49 71 -75 120 -26 50 -62 106 -81 125 -19
20 -34 40 -34 45 0 6 -9 33 -20 60 -19 50 -19 39 -20 -2622z"/>
<path d="M8780 3413 c-8 -3 -24 -14 -35 -23 -11 -10 -29 -20 -39 -22 -11 -1
-21 -9 -24 -15 -7 -23 25 -13 70 22 25 19 49 31 53 27 5 -4 5 -1 1 6 -4 6 -8
12 -9 11 -1 0 -9 -3 -17 -6z"/>
</g>
</svg>
