<?xml version="1.0" encoding="utf-8"?>
<!-- Generator: Adobe Illustrator 24.0.1, SVG Export Plug-In . SVG Version: 6.00 Build 0)  -->
<svg version="1.1" id="Camada_1" xmlns="http://www.w3.org/2000/svg" xmlns:xlink="http://www.w3.org/1999/xlink" x="0px" y="0px"
	 viewBox="0 0 168 198" style="enable-background:new 0 0 168 198;" xml:space="preserve">
<style type="text/css">
	.st0{fill:#14243C;}
</style>
<g>
	<path class="st0" d="M81.78,80.97c0,1.03,0.01,1.92,0,2.8c-0.1,12.66-0.16,25.33-0.34,37.99c-0.09,6.17,0.07,12.4-0.76,18.48
		c-1.48,10.77-6.14,15.63-15.02,17.91c-3.59,0.92-7.4,1.21-11.12,1.32c-8.41,0.24-16.77-0.23-24.75-3.38
		c-1.4-0.55-2.89-0.89-4.51-1.37c0,6.06-0.02,11.92,0.05,17.77c0.01,0.43,0.65,1.1,1.12,1.24c4.03,1.22,8.05,2.51,12.15,3.45
		c12.89,2.96,25.77,2.47,38.58-0.53c7.46-1.75,14.07-5.21,19.23-10.9c6.97-7.68,9.49-17.3,10.25-27.28
		c0.57-7.5,0.16-15.07,0.16-22.61c-0.01-24.6-0.03-49.19-0.05-73.79c-0.01-6.91-0.01-13.83-0.09-20.74
		c-0.01-0.71-0.39-1.75-0.93-2.06c-7.06-4-14.17-7.9-21.29-11.81c-0.85-0.47-1.77-0.82-2.73-1.25c0,17.36,0,34.52,0,51.86
		c-18.99,0-37.87,0-56.77,0c0,7.7,0,15.22,0,22.9C43.94,80.97,62.82,80.97,81.78,80.97z M115.91,29.38
		c-0.06,0.54-0.11,0.75-0.11,0.95c0.07,7.97,0.19,15.94,0.2,23.9c0.02,29.08,0.06,58.17-0.05,87.25c-0.02,4.35-0.46,8.77-1.36,13.01
		c-1.79,8.41-5.61,15.71-12.93,20.82c-3.94,2.74-8.38,3.89-12.97,4.66c-1.59,0.26-1.91,0.98-1.46,2.41
		c0.21,0.06,0.46,0.18,0.71,0.19c7.8,0.46,15.6,0.75,23.39-0.27c6.45-0.84,12.62-2.6,18.12-6.14c6.37-4.1,10.57-10.03,12.4-17.29
		c1.2-4.76,1.9-9.78,1.93-14.69c0.16-32.52,0.08-65.03,0.12-97.55c0-1.32-0.27-2.19-1.54-2.73c-1.11-0.47-2.17-1.06-3.22-1.65
		c-6.83-3.87-13.65-7.76-20.49-11.62C117.83,30.2,116.95,29.87,115.91,29.38z"/>
	<path class="st0" d="M81.78,80.97c-18.95,0-37.84,0-56.83,0c0-7.67,0-15.19,0-22.9c18.91,0,37.78,0,56.77,0c0-17.34,0-34.5,0-51.86
		c0.96,0.44,1.88,0.79,2.73,1.25c7.11,3.91,14.23,7.81,21.29,11.81c0.54,0.31,0.93,1.35,0.93,2.06c0.09,6.91,0.09,13.83,0.09,20.74
		c0.02,24.6,0.04,49.19,0.05,73.79c0,7.54,0.41,15.11-0.16,22.61c-0.76,9.98-3.28,19.6-10.25,27.28
		c-5.16,5.68-11.77,9.15-19.23,10.9c-12.81,3-25.7,3.49-38.58,0.53c-4.1-0.94-8.12-2.24-12.15-3.45c-0.47-0.14-1.12-0.81-1.12-1.24
		c-0.07-5.85-0.05-11.7-0.05-17.77c1.61,0.48,3.1,0.82,4.51,1.37c7.98,3.15,16.34,3.62,24.75,3.38c3.72-0.11,7.53-0.4,11.12-1.32
		c8.88-2.28,13.55-7.14,15.02-17.91c0.83-6.08,0.67-12.31,0.76-18.48c0.18-12.66,0.24-25.32,0.34-37.99
		C81.78,82.88,81.78,82,81.78,80.97z"/>
	<path class="st0" d="M115.91,29.38c1.04,0.48,1.92,0.81,2.72,1.27c6.83,3.86,13.65,7.75,20.49,11.62c1.05,0.59,2.11,1.19,3.22,1.65
		c1.27,0.54,1.54,1.41,1.54,2.73c-0.04,32.52,0.05,65.03-0.12,97.55c-0.02,4.91-0.73,9.93-1.93,14.69
		c-1.83,7.26-6.03,13.19-12.4,17.29c-5.49,3.53-11.66,5.29-18.12,6.14c-7.79,1.02-15.59,0.72-23.39,0.27
		c-0.25-0.01-0.49-0.13-0.71-0.19c-0.45-1.43-0.13-2.14,1.46-2.41c4.59-0.76,9.04-1.91,12.97-4.66c7.32-5.1,11.14-12.41,12.93-20.82
		c0.91-4.25,1.35-8.67,1.36-13.01c0.12-29.08,0.07-58.17,0.05-87.25c-0.01-7.97-0.13-15.94-0.2-23.9
		C115.8,30.13,115.84,29.93,115.91,29.38z"/>
</g>
</svg>
